<svg width="1440" height="400" viewBox="0 0 1440 400" fill="none" xmlns="http://www.w3.org/2000/svg">
<rect width="1440" height="400" fill="url(#paint0_linear_1444_43498)"/>
<path d="M267.442 184H263.762V161.632H267.442V184ZM286.4 183.808H282.72V175.104V174.592C282.72 174.464 282.688 174.304 282.688 174.176C282.656 173.856 282.592 173.6 282.528 173.312C282.368 172.8 282.112 172.288 281.824 171.936C281.536 171.552 281.184 171.264 280.768 171.072C280.384 170.848 279.936 170.72 279.392 170.688C278.816 170.624 278.336 170.656 277.824 170.784C277.312 170.912 276.8 171.168 276.32 171.552C275.872 171.936 275.488 172.512 275.2 173.12C274.944 173.728 274.784 174.4 274.752 175.104C274.72 175.296 274.688 175.52 274.688 175.712V183.808H271.008V167.808H274.688V169.728C275.104 169.152 275.648 168.608 276.32 168.224C277.248 167.68 278.336 167.392 279.392 167.328C279.904 167.328 280.448 167.36 280.992 167.424C281.536 167.52 282.08 167.712 282.592 167.936C283.104 168.16 283.552 168.48 283.968 168.832C284.384 169.184 284.736 169.568 285.024 169.984C285.632 170.816 285.952 171.68 286.176 172.576C286.272 173.024 286.336 173.472 286.368 173.888C286.368 174.112 286.4 174.304 286.4 174.528V175.104V183.808ZM295.94 165.056C295.652 165.28 295.108 165.696 295.108 167.488V167.808H299.364V171.168H295.108V183.808H291.428V171.168H288.26V167.808H291.428V167.488C291.428 165.216 292.068 163.648 293.508 162.528C295.204 161.184 297.316 161.088 299.364 161.184V164.544C297.668 164.48 296.612 164.544 295.94 165.056ZM305.157 183.808H301.445V167.808H305.157V183.808ZM303.301 166.112C301.989 166.112 300.965 165.056 300.965 163.776C300.965 162.464 301.989 161.408 303.301 161.408C304.613 161.408 305.637 162.464 305.637 163.776C305.637 165.056 304.613 166.112 303.301 166.112ZM323.869 183.808H320.189V175.104V174.592C320.189 174.464 320.157 174.304 320.157 174.176C320.125 173.856 320.061 173.6 319.997 173.312C319.837 172.8 319.581 172.288 319.293 171.936C319.005 171.552 318.653 171.264 318.237 171.072C317.853 170.848 317.405 170.72 316.861 170.688C316.285 170.624 315.805 170.656 315.293 170.784C314.781 170.912 314.269 171.168 313.789 171.552C313.341 171.936 312.957 172.512 312.669 173.12C312.413 173.728 312.253 174.4 312.221 175.104C312.189 175.296 312.157 175.52 312.157 175.712V183.808H308.477V167.808H312.157V169.728C312.573 169.152 313.117 168.608 313.789 168.224C314.717 167.68 315.805 167.392 316.861 167.328C317.373 167.328 317.917 167.36 318.461 167.424C319.005 167.52 319.549 167.712 320.061 167.936C320.573 168.16 321.021 168.48 321.437 168.832C321.853 169.184 322.205 169.568 322.493 169.984C323.101 170.816 323.421 171.68 323.645 172.576C323.741 173.024 323.805 173.472 323.837 173.888C323.837 174.112 323.869 174.304 323.869 174.528V175.104V183.808ZM330.407 183.808H326.695V167.808H330.407V183.808ZM328.551 166.112C327.239 166.112 326.215 165.056 326.215 163.776C326.215 162.464 327.239 161.408 328.551 161.408C329.863 161.408 330.887 162.464 330.887 163.776C330.887 165.056 329.863 166.112 328.551 166.112ZM344.319 171.296H339.775V177.824C339.775 179.84 340.095 180.224 340.447 180.416C341.119 180.864 342.943 180.736 344.319 180.576V183.968C343.615 184.032 342.911 184.096 342.207 184.096C340.735 184.096 339.359 183.872 338.303 183.168C336.351 181.888 336.062 179.84 336.062 177.824V171.296H332.479V167.936H336.062V164.32L339.775 162.4V167.936H344.319V171.296ZM363.018 177.184H349.674C350.41 179.264 352.682 180.8 355.37 180.8C357.194 180.8 358.89 180.096 359.978 178.976L363.402 180.416C361.642 182.72 358.666 184.16 355.37 184.16C350.09 184.16 345.77 180.416 345.77 175.808C345.77 171.2 349.802 167.456 354.762 167.456C359.754 167.456 363.786 171.2 363.786 175.808C363.786 176.288 363.754 176.736 363.658 177.184H363.018ZM349.674 174.432H359.882C359.242 172.352 357.194 170.816 354.762 170.816C352.362 170.816 350.314 172.352 349.674 174.432ZM389.494 164.96H378.006V171.04H388.63V174.368H378.006V180.64H389.494V184H378.006H374.326V161.6H389.494V164.96ZM399.392 173.92C401.216 174.464 404.992 175.648 405.12 179.2C405.152 180.48 404.64 181.632 403.648 182.528C402.432 183.616 400.64 184.192 398.656 184.192C398.528 184.192 398.4 184.192 398.24 184.192C394.912 184.064 392.224 182.24 391.424 179.552L394.976 178.656C395.424 180.192 397.056 180.8 398.432 180.832C399.488 180.896 400.512 180.608 401.056 180.128C401.312 179.904 401.44 179.616 401.44 179.296C401.408 178.272 400.256 177.728 398.208 177.088C397.92 177.024 397.664 176.928 397.44 176.864C397.344 176.832 397.216 176.768 397.088 176.736C395.68 176.288 391.936 175.072 392.224 171.776C392.448 168.768 395.52 167.424 398.24 167.424C401.216 167.424 403.456 168.64 404.48 170.88L401.088 172.192C400.8 171.584 400.192 170.784 398.24 170.784C398.208 170.784 396 170.816 395.904 172.032C395.84 172.672 397.024 173.152 398.336 173.568C398.496 173.632 398.656 173.664 398.752 173.728C398.944 173.792 399.136 173.856 399.392 173.92ZM415.982 180.8C417.678 180.8 419.246 180.064 420.238 178.784L423.246 180.768C421.55 182.88 418.83 184.16 415.982 184.16C410.99 184.16 406.958 180.384 406.99 175.776C406.99 173.568 407.918 171.488 409.614 169.888C411.31 168.32 413.582 167.456 415.982 167.456C416.014 167.456 416.014 167.456 416.014 167.456C418.894 167.456 421.614 168.768 423.278 170.912L420.27 172.864C419.278 171.552 417.71 170.816 416.014 170.816H415.982C414.574 170.816 413.262 171.328 412.238 172.256C411.246 173.184 410.67 174.464 410.67 175.808C410.67 178.56 413.038 180.8 415.982 180.8ZM435.554 167.424C435.874 167.488 436.194 167.584 436.514 167.68L435.682 171.264C435.554 171.2 435.458 171.136 435.33 171.072C434.946 170.848 434.498 170.72 433.954 170.688C433.378 170.624 432.898 170.656 432.386 170.784C431.874 170.912 431.362 171.136 430.882 171.552C430.434 171.936 430.05 172.512 429.762 173.12C429.506 173.728 429.346 174.4 429.314 175.104C429.282 175.296 429.25 175.52 429.25 175.712V183.808H425.57V167.808H429.25V169.728C429.666 169.152 430.21 168.608 430.914 168.224C431.81 167.68 432.898 167.392 433.954 167.328C434.466 167.328 435.01 167.36 435.554 167.424ZM445.888 167.456C450.88 167.456 454.912 171.2 454.912 175.808C454.912 180.416 450.88 184.16 445.888 184.16C440.928 184.16 436.896 180.416 436.896 175.808C436.896 171.2 440.928 167.456 445.888 167.456ZM445.888 180.8C448.832 180.8 451.232 178.56 451.232 175.808C451.232 173.056 448.832 170.816 445.888 170.816C442.976 170.816 440.576 173.056 440.576 175.808C440.576 178.56 442.976 180.8 445.888 180.8ZM477.113 167.84H481.113L473.753 183.808H470.233L468.153 178.528L466.073 183.808H462.521L455.193 167.84H459.193L464.313 178.976L466.137 174.944L462.873 167.84H466.873L468.153 171.392L469.433 167.84H473.433L470.137 174.944L471.993 178.976L477.113 167.84ZM507.175 177.184H493.831C494.567 179.264 496.839 180.8 499.527 180.8C501.351 180.8 503.047 180.096 504.135 178.976L507.559 180.416C505.799 182.72 502.823 184.16 499.527 184.16C494.247 184.16 489.927 180.416 489.927 175.808C489.927 171.2 493.959 167.456 498.919 167.456C503.911 167.456 507.943 171.2 507.943 175.808C507.943 176.288 507.911 176.736 507.815 177.184H507.175ZM493.831 174.432H504.039C503.399 172.352 501.351 170.816 498.919 170.816C496.519 170.816 494.471 172.352 493.831 174.432ZM535.178 183.808H531.466V175.264V174.208C531.466 173.92 531.466 173.632 531.402 173.376C531.37 173.088 531.274 172.832 531.21 172.608C531.114 172.352 530.986 172.128 530.858 171.936C530.602 171.552 530.314 171.264 529.962 171.072C529.802 170.976 529.61 170.88 529.418 170.816C529.226 170.752 529.002 170.688 528.746 170.688C528.266 170.624 527.818 170.624 527.338 170.752C526.89 170.88 526.378 171.168 525.962 171.584C525.546 172.032 525.194 172.608 525.002 173.216C524.874 173.536 524.81 173.888 524.778 174.208C524.746 174.496 524.714 174.752 524.682 175.04V175.264L524.714 183.808H521.002L521.034 175.264V174.208C521.002 173.92 521.002 173.632 520.938 173.376C520.906 173.088 520.842 172.832 520.746 172.608C520.65 172.352 520.522 172.128 520.394 171.936C520.138 171.552 519.85 171.264 519.498 171.072C519.338 170.976 519.178 170.88 518.954 170.816C518.762 170.752 518.538 170.688 518.314 170.688C517.802 170.624 517.354 170.624 516.874 170.752C516.426 170.88 515.914 171.168 515.498 171.584C515.082 172.032 514.73 172.608 514.538 173.216C514.41 173.536 514.346 173.888 514.314 174.208C514.282 174.464 514.282 174.688 514.25 174.944V183.808H510.57V167.808H514.25V169.312C514.506 168.96 514.858 168.64 515.242 168.352C515.69 168.064 516.17 167.808 516.714 167.616C517.226 167.456 517.77 167.36 518.314 167.328C518.826 167.328 519.402 167.36 519.946 167.456C520.522 167.584 521.066 167.776 521.546 168.064C522.57 168.608 523.338 169.44 523.786 170.304C523.85 170.432 523.914 170.528 523.978 170.656C524.266 169.824 524.842 168.96 525.706 168.352C526.154 168.032 526.634 167.808 527.178 167.616C527.69 167.456 528.234 167.36 528.778 167.328C529.29 167.328 529.866 167.36 530.41 167.456C530.986 167.584 531.53 167.776 532.01 168.064C533.034 168.608 533.802 169.44 534.25 170.304C534.506 170.72 534.666 171.168 534.794 171.616C534.954 172.064 535.05 172.48 535.082 172.928C535.146 173.376 535.178 173.792 535.178 174.208V175.264V183.808ZM554.512 169.92C556.144 171.488 557.072 173.664 557.04 175.808C557.072 177.952 556.144 180.128 554.512 181.696C553.68 182.496 552.688 183.136 551.568 183.552C550.448 183.968 549.232 184.192 548.048 184.16C546.832 184.128 545.648 183.872 544.592 183.392C543.632 182.944 542.768 182.336 542.064 181.6V190.208H538.384V167.808H542.064V170.016C542.768 169.312 543.632 168.672 544.592 168.224C545.648 167.744 546.832 167.488 548.048 167.456C549.232 167.456 550.448 167.648 551.568 168.064C552.688 168.512 553.68 169.152 554.512 169.92ZM551.792 179.296C552.784 178.4 553.36 177.12 553.36 175.808C553.36 174.496 552.784 173.216 551.792 172.32C550.8 171.392 549.456 170.88 548.048 170.816C547.344 170.784 546.64 170.88 545.936 171.072C545.264 171.264 544.592 171.616 543.984 172.064C542.832 172.928 542.064 174.336 542.064 175.808C542.064 177.28 542.832 178.688 544.016 179.584C544.592 180.032 545.264 180.352 545.936 180.544C546.64 180.736 547.344 180.832 548.048 180.8C549.456 180.736 550.8 180.224 551.792 179.296ZM567.857 167.456C572.849 167.456 576.881 171.2 576.881 175.808C576.881 180.416 572.849 184.16 567.857 184.16C562.897 184.16 558.865 180.416 558.865 175.808C558.865 171.2 562.897 167.456 567.857 167.456ZM567.857 180.8C570.801 180.8 573.201 178.56 573.201 175.808C573.201 173.056 570.801 170.816 567.857 170.816C564.945 170.816 562.545 173.056 562.545 175.808C562.545 178.56 564.945 180.8 567.857 180.8ZM599.082 167.84H603.082L595.722 183.808H592.202L590.122 178.528L588.042 183.808H584.49L577.162 167.84H581.161L586.282 178.976L588.106 174.944L584.842 167.84H588.842L590.122 171.392L591.402 167.84H595.402L592.106 174.944L593.962 178.976L599.082 167.84ZM620.612 177.184H607.268C608.004 179.264 610.276 180.8 612.964 180.8C614.788 180.8 616.484 180.096 617.572 178.976L620.996 180.416C619.236 182.72 616.26 184.16 612.964 184.16C607.684 184.16 603.364 180.416 603.364 175.808C603.364 171.2 607.396 167.456 612.356 167.456C617.348 167.456 621.38 171.2 621.38 175.808C621.38 176.288 621.348 176.736 621.252 177.184H620.612ZM607.268 174.432H617.476C616.836 172.352 614.788 170.816 612.356 170.816C609.956 170.816 607.908 172.352 607.268 174.432ZM633.992 167.424C634.312 167.488 634.632 167.584 634.952 167.68L634.12 171.264C633.992 171.2 633.896 171.136 633.768 171.072C633.384 170.848 632.936 170.72 632.392 170.688C631.816 170.624 631.336 170.656 630.824 170.784C630.312 170.912 629.8 171.136 629.32 171.552C628.872 171.936 628.488 172.512 628.2 173.12C627.944 173.728 627.784 174.4 627.752 175.104C627.72 175.296 627.688 175.52 627.688 175.712V183.808H624.008V167.808H627.688V169.728C628.104 169.152 628.648 168.608 629.352 168.224C630.248 167.68 631.336 167.392 632.392 167.328C632.904 167.328 633.448 167.36 633.992 167.424ZM643.705 173.92C645.529 174.464 649.305 175.648 649.433 179.2C649.465 180.48 648.953 181.632 647.961 182.528C646.745 183.616 644.953 184.192 642.969 184.192C642.841 184.192 642.713 184.192 642.553 184.192C639.225 184.064 636.537 182.24 635.737 179.552L639.289 178.656C639.737 180.192 641.369 180.8 642.745 180.832C643.801 180.896 644.825 180.608 645.369 180.128C645.625 179.904 645.753 179.616 645.753 179.296C645.721 178.272 644.569 177.728 642.521 177.088C642.233 177.024 641.977 176.928 641.753 176.864C641.657 176.832 641.529 176.768 641.401 176.736C639.993 176.288 636.249 175.072 636.537 171.776C636.761 168.768 639.833 167.424 642.553 167.424C645.529 167.424 647.769 168.64 648.793 170.88L645.401 172.192C645.113 171.584 644.505 170.784 642.553 170.784C642.521 170.784 640.313 170.816 640.217 172.032C640.153 172.672 641.337 173.152 642.649 173.568C642.809 173.632 642.969 173.664 643.065 173.728C643.257 173.792 643.449 173.856 643.705 173.92ZM676.59 167.84L676.43 168.16L666.286 190.24H662.286L665.454 183.328L658.318 167.84H662.318L667.342 179.648L671.31 170.592L672.59 167.84H676.59ZM685.857 167.456C690.849 167.456 694.881 171.2 694.881 175.808C694.881 180.416 690.849 184.16 685.857 184.16C680.897 184.16 676.865 180.416 676.865 175.808C676.865 171.2 680.897 167.456 685.857 167.456ZM685.857 180.8C688.801 180.8 691.201 178.56 691.201 175.808C691.201 173.056 688.801 170.816 685.857 170.816C682.945 170.816 680.545 173.056 680.545 175.808C680.545 178.56 682.945 180.8 685.857 180.8ZM708.933 167.808H712.613V183.808H708.933V181.888C708.517 182.464 707.941 183.008 707.269 183.392C706.373 183.936 705.253 184.256 704.229 184.288C703.717 184.32 703.173 184.288 702.629 184.192C702.085 184.096 701.541 183.904 701.029 183.68C700.516 183.456 700.036 183.136 699.621 182.816C699.205 182.464 698.853 182.048 698.565 181.632C697.989 180.8 697.637 179.936 697.445 179.04C697.349 178.592 697.285 178.176 697.253 177.728C697.221 177.504 697.221 177.312 697.221 177.088V176.512V167.808H700.901V176.512V177.024C700.901 177.152 700.901 177.312 700.933 177.472C700.965 177.76 700.997 178.048 701.093 178.304C701.221 178.816 701.477 179.328 701.797 179.68C702.085 180.064 702.437 180.352 702.821 180.544C703.237 180.768 703.685 180.896 704.229 180.928C704.773 180.992 705.285 180.992 705.797 180.832C706.309 180.704 706.821 180.48 707.269 180.064C707.749 179.68 708.133 179.104 708.389 178.496C708.677 177.888 708.805 177.248 708.869 176.512C708.901 176.32 708.901 176.128 708.933 175.904V167.808ZM734.287 171.296H729.743V177.824C729.743 179.84 730.063 180.224 730.415 180.416C731.087 180.864 732.911 180.736 734.287 180.576V183.968C733.583 184.032 732.879 184.096 732.175 184.096C730.703 184.096 729.327 183.872 728.271 183.168C726.319 181.888 726.031 179.84 726.031 177.824V171.296H722.447V167.936H726.031V164.32L729.743 162.4V167.936H734.287V171.296ZM744.763 167.456C749.755 167.456 753.787 171.2 753.787 175.808C753.787 180.416 749.755 184.16 744.763 184.16C739.803 184.16 735.771 180.416 735.771 175.808C735.771 171.2 739.803 167.456 744.763 167.456ZM744.763 180.8C747.707 180.8 750.107 178.56 750.107 175.808C750.107 173.056 747.707 170.816 744.763 170.816C741.851 170.816 739.451 173.056 739.451 175.808C739.451 178.56 741.851 180.8 744.763 180.8ZM774.054 167.424C774.374 167.488 774.694 167.584 775.014 167.68L774.182 171.264C774.054 171.2 773.958 171.136 773.83 171.072C773.446 170.848 772.998 170.72 772.454 170.688C771.878 170.624 771.398 170.656 770.886 170.784C770.374 170.912 769.862 171.136 769.382 171.552C768.934 171.936 768.55 172.512 768.262 173.12C768.006 173.728 767.846 174.4 767.814 175.104C767.782 175.296 767.75 175.52 767.75 175.712V183.808H764.07V167.808H767.75V169.728C768.166 169.152 768.71 168.608 769.414 168.224C770.31 167.68 771.398 167.392 772.454 167.328C772.966 167.328 773.51 167.36 774.054 167.424ZM792.643 177.184H779.299C780.035 179.264 782.307 180.8 784.995 180.8C786.819 180.8 788.515 180.096 789.603 178.976L793.027 180.416C791.267 182.72 788.291 184.16 784.995 184.16C779.715 184.16 775.395 180.416 775.395 175.808C775.395 171.2 779.427 167.456 784.387 167.456C789.379 167.456 793.411 171.2 793.411 175.808C793.411 176.288 793.379 176.736 793.283 177.184H792.643ZM779.299 174.432H789.507C788.867 172.352 786.819 170.816 784.387 170.816C781.987 170.816 779.939 172.352 779.299 174.432ZM810.247 161.408H813.927V183.808H810.247V181.6C809.543 182.336 808.679 182.944 807.719 183.392C806.663 183.872 805.479 184.128 804.263 184.16C803.079 184.192 801.863 184 800.743 183.552C799.623 183.136 798.631 182.496 797.799 181.696C796.167 180.128 795.239 177.952 795.271 175.808C795.239 173.664 796.167 171.488 797.799 169.92C798.631 169.152 799.623 168.512 800.743 168.064C801.863 167.648 803.079 167.456 804.263 167.456C805.479 167.488 806.663 167.744 807.719 168.224C808.679 168.672 809.543 169.312 810.247 170.016V161.408ZM808.295 179.584C809.479 178.688 810.247 177.28 810.247 175.808C810.247 174.336 809.479 172.928 808.295 172.064C807.719 171.616 807.047 171.264 806.375 171.072C805.671 170.88 804.967 170.784 804.263 170.816C802.855 170.88 801.511 171.392 800.519 172.32C799.527 173.216 798.951 174.496 798.951 175.808C798.951 177.12 799.527 178.4 800.519 179.296C801.511 180.224 802.855 180.736 804.263 180.8C804.967 180.832 805.671 180.736 806.375 180.544C807.047 180.352 807.719 180.032 808.295 179.584ZM833.768 177.184H820.424C821.16 179.264 823.432 180.8 826.12 180.8C827.944 180.8 829.64 180.096 830.728 178.976L834.152 180.416C832.392 182.72 829.416 184.16 826.12 184.16C820.84 184.16 816.52 180.416 816.52 175.808C816.52 171.2 820.552 167.456 825.512 167.456C830.504 167.456 834.536 171.2 834.536 175.808C834.536 176.288 834.504 176.736 834.408 177.184H833.768ZM820.424 174.432H830.632C829.992 172.352 827.944 170.816 825.512 170.816C823.112 170.816 821.064 172.352 820.424 174.432ZM843.346 165.056C843.058 165.28 842.514 165.696 842.514 167.488V167.808H846.77V171.168H842.514V183.808H838.834V171.168H835.666V167.808H838.834V167.488C838.834 165.216 839.474 163.648 840.914 162.528C842.61 161.184 844.722 161.088 846.77 161.184V164.544C845.074 164.48 844.018 164.544 843.346 165.056ZM852.563 183.808H848.851V167.808H852.563V183.808ZM850.707 166.112C849.395 166.112 848.371 165.056 848.371 163.776C848.371 162.464 849.395 161.408 850.707 161.408C852.019 161.408 853.043 162.464 853.043 163.776C853.043 165.056 852.019 166.112 850.707 166.112ZM871.275 183.808H867.595V175.104V174.592C867.595 174.464 867.563 174.304 867.563 174.176C867.531 173.856 867.467 173.6 867.403 173.312C867.243 172.8 866.987 172.288 866.699 171.936C866.411 171.552 866.059 171.264 865.643 171.072C865.259 170.848 864.811 170.72 864.267 170.688C863.691 170.624 863.211 170.656 862.699 170.784C862.187 170.912 861.675 171.168 861.195 171.552C860.747 171.936 860.363 172.512 860.075 173.12C859.819 173.728 859.659 174.4 859.627 175.104C859.595 175.296 859.563 175.52 859.563 175.712V183.808H855.883V167.808H859.563V169.728C859.979 169.152 860.523 168.608 861.195 168.224C862.123 167.68 863.211 167.392 864.267 167.328C864.779 167.328 865.323 167.36 865.867 167.424C866.411 167.52 866.955 167.712 867.467 167.936C867.979 168.16 868.427 168.48 868.843 168.832C869.259 169.184 869.611 169.568 869.899 169.984C870.507 170.816 870.827 171.68 871.051 172.576C871.147 173.024 871.211 173.472 871.243 173.888C871.243 174.112 871.275 174.304 871.275 174.528V175.104V183.808ZM890.831 177.184H877.487C878.223 179.264 880.495 180.8 883.183 180.8C885.007 180.8 886.703 180.096 887.791 178.976L891.215 180.416C889.455 182.72 886.479 184.16 883.183 184.16C877.903 184.16 873.583 180.416 873.583 175.808C873.583 171.2 877.615 167.456 882.575 167.456C887.567 167.456 891.599 171.2 891.599 175.808C891.599 176.288 891.567 176.736 891.471 177.184H890.831ZM877.487 174.432H887.695C887.055 172.352 885.007 170.816 882.575 170.816C880.175 170.816 878.127 172.352 877.487 174.432ZM912.506 171.296H907.962V177.824C907.962 179.84 908.282 180.224 908.634 180.416C909.306 180.864 911.13 180.736 912.506 180.576V183.968C911.802 184.032 911.098 184.096 910.394 184.096C908.922 184.096 907.546 183.872 906.49 183.168C904.538 181.888 904.25 179.84 904.25 177.824V171.296H900.666V167.936H904.25V164.32L907.962 162.4V167.936H912.506V171.296ZM925.148 167.424C925.468 167.488 925.788 167.584 926.108 167.68L925.276 171.264C925.148 171.2 925.052 171.136 924.924 171.072C924.54 170.848 924.092 170.72 923.548 170.688C922.972 170.624 922.492 170.656 921.98 170.784C921.468 170.912 920.956 171.136 920.476 171.552C920.028 171.936 919.644 172.512 919.356 173.12C919.1 173.728 918.94 174.4 918.908 175.104C918.876 175.296 918.844 175.52 918.844 175.712V183.808H915.164V167.808H918.844V169.728C919.26 169.152 919.804 168.608 920.508 168.224C921.404 167.68 922.492 167.392 923.548 167.328C924.06 167.328 924.604 167.36 925.148 167.424ZM939.526 167.808H943.206V183.808H939.526V181.888C939.11 182.464 938.534 183.008 937.862 183.392C936.966 183.936 935.846 184.256 934.822 184.288C934.31 184.32 933.766 184.288 933.222 184.192C932.678 184.096 932.134 183.904 931.622 183.68C931.11 183.456 930.63 183.136 930.214 182.816C929.798 182.464 929.446 182.048 929.158 181.632C928.582 180.8 928.23 179.936 928.038 179.04C927.942 178.592 927.878 178.176 927.846 177.728C927.814 177.504 927.814 177.312 927.814 177.088V176.512V167.808H931.494V176.512V177.024C931.494 177.152 931.494 177.312 931.526 177.472C931.558 177.76 931.59 178.048 931.686 178.304C931.814 178.816 932.07 179.328 932.39 179.68C932.678 180.064 933.03 180.352 933.414 180.544C933.83 180.768 934.278 180.896 934.822 180.928C935.366 180.992 935.878 180.992 936.39 180.832C936.902 180.704 937.414 180.48 937.862 180.064C938.342 179.68 938.726 179.104 938.982 178.496C939.27 177.888 939.398 177.248 939.462 176.512C939.494 176.32 939.494 176.128 939.526 175.904V167.808ZM953.674 173.92C955.498 174.464 959.274 175.648 959.402 179.2C959.434 180.48 958.922 181.632 957.93 182.528C956.714 183.616 954.922 184.192 952.938 184.192C952.81 184.192 952.682 184.192 952.522 184.192C949.194 184.064 946.506 182.24 945.706 179.552L949.258 178.656C949.706 180.192 951.338 180.8 952.714 180.832C953.77 180.896 954.794 180.608 955.338 180.128C955.594 179.904 955.722 179.616 955.722 179.296C955.69 178.272 954.538 177.728 952.49 177.088C952.202 177.024 951.946 176.928 951.722 176.864C951.626 176.832 951.498 176.768 951.37 176.736C949.962 176.288 946.218 175.072 946.506 171.776C946.73 168.768 949.802 167.424 952.522 167.424C955.498 167.424 957.738 168.64 958.762 170.88L955.37 172.192C955.082 171.584 954.474 170.784 952.522 170.784C952.49 170.784 950.282 170.816 950.186 172.032C950.122 172.672 951.306 173.152 952.618 173.568C952.778 173.632 952.938 173.664 953.034 173.728C953.226 173.792 953.418 173.856 953.674 173.92ZM972.631 171.296H968.087V177.824C968.087 179.84 968.407 180.224 968.759 180.416C969.431 180.864 971.255 180.736 972.631 180.576V183.968C971.927 184.032 971.223 184.096 970.519 184.096C969.047 184.096 967.671 183.872 966.615 183.168C964.663 181.888 964.375 179.84 964.375 177.824V171.296H960.791V167.936H964.375V164.32L968.087 162.4V167.936H972.631V171.296ZM997.185 167.808H1000.86V183.808H997.185V181.6C996.481 182.336 995.617 182.944 994.657 183.392C993.601 183.872 992.417 184.128 991.201 184.16C990.017 184.192 988.801 183.968 987.681 183.552C986.561 183.136 985.569 182.496 984.737 181.696C983.105 180.128 982.177 177.952 982.209 175.808C982.177 173.664 983.105 171.488 984.737 169.92C985.569 169.152 986.561 168.512 987.681 168.064C988.801 167.648 990.017 167.456 991.201 167.456C992.417 167.488 993.601 167.744 994.657 168.224C995.617 168.672 996.481 169.312 997.185 170.016V167.808ZM995.233 179.584C996.417 178.688 997.185 177.28 997.185 175.808C997.185 174.336 996.417 172.928 995.233 172.064C994.657 171.616 993.985 171.264 993.313 171.072C992.609 170.88 991.905 170.784 991.201 170.816C989.793 170.88 988.449 171.392 987.457 172.32C986.465 173.216 985.889 174.496 985.889 175.808C985.889 177.12 986.465 178.4 987.457 179.296C988.449 180.224 989.793 180.736 991.201 180.8C991.905 180.832 992.609 180.736 993.313 180.544C993.985 180.352 994.657 180.032 995.233 179.584ZM1019.65 183.808H1015.97V175.104V174.592C1015.97 174.464 1015.94 174.304 1015.94 174.176C1015.91 173.856 1015.84 173.6 1015.78 173.312C1015.62 172.8 1015.36 172.288 1015.07 171.936C1014.79 171.552 1014.43 171.264 1014.02 171.072C1013.63 170.848 1013.19 170.72 1012.64 170.688C1012.07 170.624 1011.59 170.656 1011.07 170.784C1010.56 170.912 1010.05 171.168 1009.57 171.552C1009.12 171.936 1008.74 172.512 1008.45 173.12C1008.19 173.728 1008.03 174.4 1008 175.104C1007.97 175.296 1007.94 175.52 1007.94 175.712V183.808H1004.26V167.808H1007.94V169.728C1008.35 169.152 1008.9 168.608 1009.57 168.224C1010.5 167.68 1011.59 167.392 1012.64 167.328C1013.15 167.328 1013.7 167.36 1014.24 167.424C1014.79 167.52 1015.33 167.712 1015.84 167.936C1016.35 168.16 1016.8 168.48 1017.22 168.832C1017.63 169.184 1017.99 169.568 1018.27 169.984C1018.88 170.816 1019.2 171.68 1019.43 172.576C1019.52 173.024 1019.59 173.472 1019.62 173.888C1019.62 174.112 1019.65 174.304 1019.65 174.528V175.104V183.808ZM1036.97 161.408H1040.65V183.808H1036.97V181.6C1036.26 182.336 1035.4 182.944 1034.44 183.392C1033.38 183.872 1032.2 184.128 1030.98 184.16C1029.8 184.192 1028.58 184 1027.46 183.552C1026.34 183.136 1025.35 182.496 1024.52 181.696C1022.89 180.128 1021.96 177.952 1021.99 175.808C1021.96 173.664 1022.89 171.488 1024.52 169.92C1025.35 169.152 1026.34 168.512 1027.46 168.064C1028.58 167.648 1029.8 167.456 1030.98 167.456C1032.2 167.488 1033.38 167.744 1034.44 168.224C1035.4 168.672 1036.26 169.312 1036.97 170.016V161.408ZM1035.01 179.584C1036.2 178.688 1036.97 177.28 1036.97 175.808C1036.97 174.336 1036.2 172.928 1035.01 172.064C1034.44 171.616 1033.77 171.264 1033.09 171.072C1032.39 170.88 1031.69 170.784 1030.98 170.816C1029.57 170.88 1028.23 171.392 1027.24 172.32C1026.25 173.216 1025.67 174.496 1025.67 175.808C1025.67 177.12 1026.25 178.4 1027.24 179.296C1028.23 180.224 1029.57 180.736 1030.98 180.8C1031.69 180.832 1032.39 180.736 1033.09 180.544C1033.77 180.352 1034.44 180.032 1035.01 179.584ZM1058.8 173.92C1060.62 174.464 1064.4 175.648 1064.53 179.2C1064.56 180.48 1064.05 181.632 1063.05 182.528C1061.84 183.616 1060.05 184.192 1058.06 184.192C1057.93 184.192 1057.81 184.192 1057.65 184.192C1054.32 184.064 1051.63 182.24 1050.83 179.552L1054.38 178.656C1054.83 180.192 1056.46 180.8 1057.84 180.832C1058.89 180.896 1059.92 180.608 1060.46 180.128C1060.72 179.904 1060.85 179.616 1060.85 179.296C1060.81 178.272 1059.66 177.728 1057.61 177.088C1057.33 177.024 1057.07 176.928 1056.85 176.864C1056.75 176.832 1056.62 176.768 1056.49 176.736C1055.09 176.288 1051.34 175.072 1051.63 171.776C1051.85 168.768 1054.93 167.424 1057.65 167.424C1060.62 167.424 1062.86 168.64 1063.89 170.88L1060.49 172.192C1060.21 171.584 1059.6 170.784 1057.65 170.784C1057.61 170.784 1055.41 170.816 1055.31 172.032C1055.25 172.672 1056.43 173.152 1057.74 173.568C1057.9 173.632 1058.06 173.664 1058.16 173.728C1058.35 173.792 1058.54 173.856 1058.8 173.92ZM1083.61 177.184H1070.27C1071 179.264 1073.28 180.8 1075.96 180.8C1077.79 180.8 1079.48 180.096 1080.57 178.976L1084 180.416C1082.24 182.72 1079.26 184.16 1075.96 184.16C1070.68 184.16 1066.36 180.416 1066.36 175.808C1066.36 171.2 1070.4 167.456 1075.36 167.456C1080.35 167.456 1084.38 171.2 1084.38 175.808C1084.38 176.288 1084.35 176.736 1084.25 177.184H1083.61ZM1070.27 174.432H1080.48C1079.84 172.352 1077.79 170.816 1075.36 170.816C1072.96 170.816 1070.91 172.352 1070.27 174.432ZM1095.23 180.8C1096.93 180.8 1098.5 180.064 1099.49 178.784L1102.5 180.768C1100.8 182.88 1098.08 184.16 1095.23 184.16C1090.24 184.16 1086.21 180.384 1086.24 175.776C1086.24 173.568 1087.17 171.488 1088.86 169.888C1090.56 168.32 1092.83 167.456 1095.23 167.456C1095.26 167.456 1095.26 167.456 1095.26 167.456C1098.14 167.456 1100.86 168.768 1102.53 170.912L1099.52 172.864C1098.53 171.552 1096.96 170.816 1095.26 170.816H1095.23C1093.82 170.816 1092.51 171.328 1091.49 172.256C1090.5 173.184 1089.92 174.464 1089.92 175.808C1089.92 178.56 1092.29 180.8 1095.23 180.8ZM1116.28 167.808H1119.96V183.808H1116.28V181.888C1115.86 182.464 1115.28 183.008 1114.61 183.392C1113.72 183.936 1112.6 184.256 1111.57 184.288C1111.06 184.32 1110.52 184.288 1109.97 184.192C1109.43 184.096 1108.88 183.904 1108.37 183.68C1107.86 183.456 1107.38 183.136 1106.96 182.816C1106.55 182.464 1106.2 182.048 1105.91 181.632C1105.33 180.8 1104.98 179.936 1104.79 179.04C1104.69 178.592 1104.63 178.176 1104.6 177.728C1104.56 177.504 1104.56 177.312 1104.56 177.088V176.512V167.808H1108.24V176.512V177.024C1108.24 177.152 1108.24 177.312 1108.28 177.472C1108.31 177.76 1108.34 178.048 1108.44 178.304C1108.56 178.816 1108.82 179.328 1109.14 179.68C1109.43 180.064 1109.78 180.352 1110.16 180.544C1110.58 180.768 1111.03 180.896 1111.57 180.928C1112.12 180.992 1112.63 180.992 1113.14 180.832C1113.65 180.704 1114.16 180.48 1114.61 180.064C1115.09 179.68 1115.48 179.104 1115.73 178.496C1116.02 177.888 1116.15 177.248 1116.21 176.512C1116.24 176.32 1116.24 176.128 1116.28 175.904V167.808ZM1133.34 167.424C1133.66 167.488 1133.98 167.584 1134.3 167.68L1133.46 171.264C1133.34 171.2 1133.24 171.136 1133.11 171.072C1132.73 170.848 1132.28 170.72 1131.74 170.688C1131.16 170.624 1130.68 170.656 1130.17 170.784C1129.66 170.912 1129.14 171.136 1128.66 171.552C1128.22 171.936 1127.83 172.512 1127.54 173.12C1127.29 173.728 1127.13 174.4 1127.1 175.104C1127.06 175.296 1127.03 175.52 1127.03 175.712V183.808H1123.35V167.808H1127.03V169.728C1127.45 169.152 1127.99 168.608 1128.7 168.224C1129.59 167.68 1130.68 167.392 1131.74 167.328C1132.25 167.328 1132.79 167.36 1133.34 167.424ZM1139.94 183.808H1136.23V167.808H1139.94V183.808ZM1138.08 166.112C1136.77 166.112 1135.75 165.056 1135.75 163.776C1135.75 162.464 1136.77 161.408 1138.08 161.408C1139.39 161.408 1140.42 162.464 1140.42 163.776C1140.42 165.056 1139.39 166.112 1138.08 166.112ZM1153.85 171.296H1149.31V177.824C1149.31 179.84 1149.63 180.224 1149.98 180.416C1150.65 180.864 1152.47 180.736 1153.85 180.576V183.968C1153.15 184.032 1152.44 184.096 1151.74 184.096C1150.27 184.096 1148.89 183.872 1147.83 183.168C1145.88 181.888 1145.59 179.84 1145.59 177.824V171.296H1142.01V167.936H1145.59V164.32L1149.31 162.4V167.936H1153.85V171.296ZM1173.34 167.84L1173.18 168.16L1163.04 190.24H1159.04L1162.2 183.328L1155.07 167.84H1159.07L1164.09 179.648L1168.06 170.592L1169.34 167.84H1173.34ZM1173.66 180.032H1177.4L1174.4 189.44H1171.87L1173.66 180.032ZM227.956 231.184H214.612C215.348 233.264 217.62 234.8 220.308 234.8C222.132 234.8 223.828 234.096 224.916 232.976L228.34 234.416C226.58 236.72 223.604 238.16 220.308 238.16C215.028 238.16 210.708 234.416 210.708 229.808C210.708 225.2 214.74 221.456 219.7 221.456C224.692 221.456 228.724 225.2 228.724 229.808C228.724 230.288 228.692 230.736 228.596 231.184H227.956ZM214.612 228.432H224.82C224.18 226.352 222.132 224.816 219.7 224.816C217.3 224.816 215.252 226.352 214.612 228.432ZM246.744 237.808H243.064V229.104V228.592C243.064 228.464 243.032 228.304 243.032 228.176C243 227.856 242.936 227.6 242.872 227.312C242.712 226.8 242.456 226.288 242.168 225.936C241.88 225.552 241.528 225.264 241.112 225.072C240.728 224.848 240.28 224.72 239.736 224.688C239.16 224.624 238.68 224.656 238.168 224.784C237.656 224.912 237.144 225.168 236.664 225.552C236.216 225.936 235.832 226.512 235.544 227.12C235.288 227.728 235.128 228.4 235.096 229.104C235.064 229.296 235.032 229.52 235.032 229.712V237.808H231.352V221.808H235.032V223.728C235.448 223.152 235.992 222.608 236.664 222.224C237.592 221.68 238.68 221.392 239.736 221.328C240.248 221.328 240.792 221.36 241.336 221.424C241.88 221.52 242.424 221.712 242.936 221.936C243.448 222.16 243.896 222.48 244.312 222.832C244.728 223.184 245.08 223.568 245.368 223.984C245.976 224.816 246.296 225.68 246.52 226.576C246.616 227.024 246.68 227.472 246.712 227.888C246.712 228.112 246.744 228.304 246.744 228.528V229.104V237.808ZM256.924 227.92C258.748 228.464 262.524 229.648 262.652 233.2C262.684 234.48 262.172 235.632 261.18 236.528C259.964 237.616 258.172 238.192 256.188 238.192C256.06 238.192 255.932 238.192 255.772 238.192C252.444 238.064 249.756 236.24 248.956 233.552L252.508 232.656C252.956 234.192 254.588 234.8 255.964 234.832C257.02 234.896 258.044 234.608 258.588 234.128C258.844 233.904 258.972 233.616 258.972 233.296C258.94 232.272 257.788 231.728 255.74 231.088C255.452 231.024 255.196 230.928 254.972 230.864C254.876 230.832 254.748 230.768 254.62 230.736C253.212 230.288 249.468 229.072 249.756 225.776C249.98 222.768 253.052 221.424 255.772 221.424C258.748 221.424 260.988 222.64 262.012 224.88L258.62 226.192C258.332 225.584 257.724 224.784 255.772 224.784C255.74 224.784 253.532 224.816 253.436 226.032C253.372 226.672 254.556 227.152 255.868 227.568C256.028 227.632 256.188 227.664 256.284 227.728C256.476 227.792 256.668 227.856 256.924 227.92ZM276.745 221.808H280.425V237.808H276.745V235.888C276.329 236.464 275.753 237.008 275.081 237.392C274.185 237.936 273.065 238.256 272.041 238.288C271.529 238.32 270.985 238.288 270.441 238.192C269.897 238.096 269.353 237.904 268.841 237.68C268.329 237.456 267.849 237.136 267.433 236.816C267.017 236.464 266.665 236.048 266.377 235.632C265.801 234.8 265.449 233.936 265.257 233.04C265.161 232.592 265.097 232.176 265.065 231.728C265.033 231.504 265.033 231.312 265.033 231.088V230.512V221.808H268.713V230.512V231.024C268.713 231.152 268.713 231.312 268.745 231.472C268.777 231.76 268.809 232.048 268.905 232.304C269.033 232.816 269.289 233.328 269.609 233.68C269.897 234.064 270.249 234.352 270.633 234.544C271.049 234.768 271.497 234.896 272.041 234.928C272.585 234.992 273.097 234.992 273.609 234.832C274.121 234.704 274.633 234.48 275.081 234.064C275.561 233.68 275.945 233.104 276.201 232.496C276.489 231.888 276.617 231.248 276.681 230.512C276.713 230.32 276.713 230.128 276.745 229.904V221.808ZM293.804 221.424C294.124 221.488 294.444 221.584 294.764 221.68L293.932 225.264C293.804 225.2 293.708 225.136 293.58 225.072C293.196 224.848 292.748 224.72 292.204 224.688C291.628 224.624 291.148 224.656 290.636 224.784C290.124 224.912 289.612 225.136 289.132 225.552C288.684 225.936 288.3 226.512 288.012 227.12C287.756 227.728 287.596 228.4 287.564 229.104C287.532 229.296 287.5 229.52 287.5 229.712V237.808H283.82V221.808H287.5V223.728C287.916 223.152 288.46 222.608 289.164 222.224C290.06 221.68 291.148 221.392 292.204 221.328C292.716 221.328 293.26 221.36 293.804 221.424ZM300.407 237.808H296.695V221.808H300.407V237.808ZM298.551 220.112C297.239 220.112 296.215 219.056 296.215 217.776C296.215 216.464 297.239 215.408 298.551 215.408C299.863 215.408 300.887 216.464 300.887 217.776C300.887 219.056 299.863 220.112 298.551 220.112ZM319.119 237.808H315.439V229.104V228.592C315.439 228.464 315.407 228.304 315.407 228.176C315.375 227.856 315.311 227.6 315.247 227.312C315.087 226.8 314.831 226.288 314.543 225.936C314.255 225.552 313.903 225.264 313.487 225.072C313.103 224.848 312.655 224.72 312.111 224.688C311.535 224.624 311.055 224.656 310.543 224.784C310.031 224.912 309.519 225.168 309.039 225.552C308.591 225.936 308.207 226.512 307.919 227.12C307.663 227.728 307.503 228.4 307.471 229.104C307.439 229.296 307.407 229.52 307.407 229.712V237.808H303.727V221.808H307.407V223.728C307.823 223.152 308.367 222.608 309.039 222.224C309.967 221.68 311.055 221.392 312.111 221.328C312.623 221.328 313.167 221.36 313.711 221.424C314.255 221.52 314.799 221.712 315.311 221.936C315.823 222.16 316.271 222.48 316.687 222.832C317.103 223.184 317.455 223.568 317.743 223.984C318.351 224.816 318.671 225.68 318.895 226.576C318.991 227.024 319.055 227.472 319.087 227.888C319.087 228.112 319.119 228.304 319.119 228.528V229.104V237.808ZM336.083 221.808H339.795V235.76C339.795 240.4 337.139 243.536 332.499 244.304C331.859 244.4 331.219 244.432 330.611 244.432C326.931 244.432 323.379 242.704 321.555 239.888L324.755 238.192C326.067 240.272 329.075 241.456 331.827 240.976C334.675 240.528 336.083 238.768 336.083 235.76V235.376C335.411 236.08 334.611 236.656 333.651 237.072C332.627 237.552 331.475 237.808 330.291 237.84C329.107 237.872 327.923 237.68 326.835 237.264C325.747 236.816 324.755 236.208 323.955 235.44C322.323 233.872 321.427 231.76 321.459 229.648C321.427 227.536 322.323 225.424 323.955 223.888C324.755 223.12 325.747 222.48 326.835 222.064C327.923 221.648 329.107 221.456 330.291 221.456C331.443 221.488 332.627 221.744 333.651 222.224C334.611 222.64 335.411 223.248 336.083 223.92V221.808ZM334.195 233.296C335.347 232.432 336.083 231.088 336.083 229.648C336.083 228.24 335.347 226.864 334.195 226C333.651 225.552 332.979 225.264 332.307 225.072C331.667 224.88 330.963 224.784 330.291 224.816C328.915 224.88 327.635 225.36 326.675 226.256C325.683 227.152 325.139 228.368 325.139 229.648C325.139 230.928 325.715 232.144 326.675 233.04C327.635 233.936 328.915 234.416 330.291 234.48C330.963 234.512 331.667 234.416 332.307 234.224C332.979 234.032 333.651 233.744 334.195 233.296ZM367.715 221.84L367.555 222.16L357.411 244.24H353.411L356.579 237.328L349.443 221.84H353.443L358.467 233.648L362.435 224.592L363.715 221.84H367.715ZM376.982 221.456C381.974 221.456 386.006 225.2 386.006 229.808C386.006 234.416 381.974 238.16 376.982 238.16C372.022 238.16 367.99 234.416 367.99 229.808C367.99 225.2 372.022 221.456 376.982 221.456ZM376.982 234.8C379.926 234.8 382.326 232.56 382.326 229.808C382.326 227.056 379.926 224.816 376.982 224.816C374.07 224.816 371.67 227.056 371.67 229.808C371.67 232.56 374.07 234.8 376.982 234.8ZM400.058 221.808H403.738V237.808H400.058V235.888C399.642 236.464 399.066 237.008 398.394 237.392C397.498 237.936 396.378 238.256 395.354 238.288C394.842 238.32 394.298 238.288 393.754 238.192C393.21 238.096 392.666 237.904 392.154 237.68C391.641 237.456 391.161 237.136 390.746 236.816C390.33 236.464 389.978 236.048 389.69 235.632C389.114 234.8 388.762 233.936 388.57 233.04C388.474 232.592 388.41 232.176 388.378 231.728C388.346 231.504 388.346 231.312 388.346 231.088V230.512V221.808H392.026V230.512V231.024C392.026 231.152 392.026 231.312 392.058 231.472C392.09 231.76 392.122 232.048 392.218 232.304C392.346 232.816 392.602 233.328 392.922 233.68C393.21 234.064 393.562 234.352 393.946 234.544C394.362 234.768 394.81 234.896 395.354 234.928C395.898 234.992 396.41 234.992 396.922 234.832C397.434 234.704 397.946 234.48 398.394 234.064C398.874 233.68 399.258 233.104 399.514 232.496C399.802 231.888 399.93 231.248 399.994 230.512C400.026 230.32 400.026 230.128 400.058 229.904V221.808ZM417.117 221.424C417.437 221.488 417.757 221.584 418.077 221.68L417.245 225.264C417.117 225.2 417.021 225.136 416.893 225.072C416.509 224.848 416.061 224.72 415.517 224.688C414.941 224.624 414.461 224.656 413.949 224.784C413.437 224.912 412.925 225.136 412.445 225.552C411.997 225.936 411.613 226.512 411.325 227.12C411.069 227.728 410.909 228.4 410.877 229.104C410.845 229.296 410.813 229.52 410.813 229.712V237.808H407.133V221.808H410.813V223.728C411.229 223.152 411.773 222.608 412.477 222.224C413.373 221.68 414.461 221.392 415.517 221.328C416.029 221.328 416.573 221.36 417.117 221.424ZM438.319 225.296H433.775V231.824C433.775 233.84 434.095 234.224 434.447 234.416C435.119 234.864 436.943 234.736 438.319 234.576V237.968C437.615 238.032 436.911 238.096 436.207 238.096C434.735 238.096 433.359 237.872 432.303 237.168C430.351 235.888 430.062 233.84 430.062 231.824V225.296H426.479V221.936H430.062V218.32L433.775 216.4V221.936H438.319V225.296ZM450.961 221.424C451.281 221.488 451.601 221.584 451.921 221.68L451.089 225.264C450.961 225.2 450.865 225.136 450.737 225.072C450.353 224.848 449.905 224.72 449.361 224.688C448.785 224.624 448.305 224.656 447.793 224.784C447.281 224.912 446.769 225.136 446.289 225.552C445.841 225.936 445.457 226.512 445.169 227.12C444.913 227.728 444.753 228.4 444.721 229.104C444.689 229.296 444.657 229.52 444.657 229.712V237.808H440.977V221.808H444.657V223.728C445.073 223.152 445.617 222.608 446.321 222.224C447.217 221.68 448.305 221.392 449.361 221.328C449.873 221.328 450.417 221.36 450.961 221.424ZM467.31 221.808H470.99V237.808H467.31V235.6C466.606 236.336 465.742 236.944 464.782 237.392C463.726 237.872 462.542 238.128 461.326 238.16C460.142 238.192 458.926 237.968 457.806 237.552C456.686 237.136 455.694 236.496 454.862 235.696C453.23 234.128 452.302 231.952 452.334 229.808C452.302 227.664 453.23 225.488 454.862 223.92C455.694 223.152 456.686 222.512 457.806 222.064C458.926 221.648 460.142 221.456 461.326 221.456C462.542 221.488 463.726 221.744 464.782 222.224C465.742 222.672 466.606 223.312 467.31 224.016V221.808ZM465.358 233.584C466.542 232.688 467.31 231.28 467.31 229.808C467.31 228.336 466.542 226.928 465.358 226.064C464.782 225.616 464.11 225.264 463.438 225.072C462.734 224.88 462.03 224.784 461.326 224.816C459.918 224.88 458.574 225.392 457.582 226.32C456.59 227.216 456.014 228.496 456.014 229.808C456.014 231.12 456.59 232.4 457.582 233.296C458.574 234.224 459.918 234.736 461.326 234.8C462.03 234.832 462.734 234.736 463.438 234.544C464.11 234.352 464.782 234.032 465.358 233.584ZM489.775 237.808H486.095V229.104V228.592C486.095 228.464 486.063 228.304 486.063 228.176C486.031 227.856 485.967 227.6 485.903 227.312C485.743 226.8 485.487 226.288 485.199 225.936C484.911 225.552 484.559 225.264 484.143 225.072C483.759 224.848 483.311 224.72 482.767 224.688C482.191 224.624 481.711 224.656 481.199 224.784C480.687 224.912 480.175 225.168 479.695 225.552C479.247 225.936 478.863 226.512 478.575 227.12C478.319 227.728 478.159 228.4 478.127 229.104C478.095 229.296 478.063 229.52 478.063 229.712V237.808H474.383V221.808H478.063V223.728C478.479 223.152 479.023 222.608 479.695 222.224C480.623 221.68 481.711 221.392 482.767 221.328C483.279 221.328 483.823 221.36 484.367 221.424C484.911 221.52 485.455 221.712 485.967 221.936C486.479 222.16 486.927 222.48 487.343 222.832C487.759 223.184 488.111 223.568 488.399 223.984C489.007 224.816 489.327 225.68 489.551 226.576C489.647 227.024 489.711 227.472 489.743 227.888C489.743 228.112 489.775 228.304 489.775 228.528V229.104V237.808ZM499.955 227.92C501.779 228.464 505.555 229.648 505.683 233.2C505.715 234.48 505.203 235.632 504.211 236.528C502.995 237.616 501.203 238.192 499.219 238.192C499.091 238.192 498.963 238.192 498.803 238.192C495.475 238.064 492.787 236.24 491.987 233.552L495.539 232.656C495.987 234.192 497.619 234.8 498.995 234.832C500.051 234.896 501.075 234.608 501.619 234.128C501.875 233.904 502.003 233.616 502.003 233.296C501.971 232.272 500.819 231.728 498.771 231.088C498.483 231.024 498.227 230.928 498.003 230.864C497.907 230.832 497.779 230.768 497.651 230.736C496.243 230.288 492.499 229.072 492.787 225.776C493.011 222.768 496.083 221.424 498.803 221.424C501.779 221.424 504.019 222.64 505.043 224.88L501.651 226.192C501.363 225.584 500.755 224.784 498.803 224.784C498.771 224.784 496.563 224.816 496.467 226.032C496.403 226.672 497.587 227.152 498.899 227.568C499.059 227.632 499.219 227.664 499.315 227.728C499.507 227.792 499.699 227.856 499.955 227.92ZM522.528 221.808H526.208V237.808H522.528V235.6C521.824 236.336 520.96 236.944 520 237.392C518.944 237.872 517.76 238.128 516.544 238.16C515.36 238.192 514.144 237.968 513.024 237.552C511.904 237.136 510.912 236.496 510.08 235.696C508.448 234.128 507.52 231.952 507.552 229.808C507.52 227.664 508.448 225.488 510.08 223.92C510.912 223.152 511.904 222.512 513.024 222.064C514.144 221.648 515.36 221.456 516.544 221.456C517.76 221.488 518.944 221.744 520 222.224C520.96 222.672 521.824 223.312 522.528 224.016V221.808ZM520.576 233.584C521.76 232.688 522.528 231.28 522.528 229.808C522.528 228.336 521.76 226.928 520.576 226.064C520 225.616 519.328 225.264 518.656 225.072C517.952 224.88 517.248 224.784 516.544 224.816C515.136 224.88 513.792 225.392 512.8 226.32C511.808 227.216 511.232 228.496 511.232 229.808C511.232 231.12 511.808 232.4 512.8 233.296C513.792 234.224 515.136 234.736 516.544 234.8C517.248 234.832 517.952 234.736 518.656 234.544C519.328 234.352 520 234.032 520.576 233.584ZM537.826 234.8C539.522 234.8 541.09 234.064 542.082 232.784L545.09 234.768C543.394 236.88 540.674 238.16 537.826 238.16C532.834 238.16 528.802 234.384 528.834 229.776C528.834 227.568 529.762 225.488 531.458 223.888C533.154 222.32 535.426 221.456 537.826 221.456C537.858 221.456 537.858 221.456 537.858 221.456C540.738 221.456 543.458 222.768 545.122 224.912L542.114 226.864C541.122 225.552 539.554 224.816 537.858 224.816H537.826C536.418 224.816 535.106 225.328 534.082 226.256C533.09 227.184 532.514 228.464 532.514 229.808C532.514 232.56 534.882 234.8 537.826 234.8ZM558.006 225.296H553.462V231.824C553.462 233.84 553.782 234.224 554.134 234.416C554.806 234.864 556.63 234.736 558.006 234.576V237.968C557.302 238.032 556.598 238.096 555.894 238.096C554.422 238.096 553.046 237.872 551.99 237.168C550.038 235.888 549.75 233.84 549.75 231.824V225.296H546.166V221.936H549.75V218.32L553.462 216.4V221.936H558.006V225.296ZM564.344 237.808H560.632V221.808H564.344V237.808ZM562.488 220.112C561.176 220.112 560.152 219.056 560.152 217.776C560.152 216.464 561.176 215.408 562.488 215.408C563.8 215.408 564.824 216.464 564.824 217.776C564.824 219.056 563.8 220.112 562.488 220.112ZM575.701 221.456C580.693 221.456 584.725 225.2 584.725 229.808C584.725 234.416 580.693 238.16 575.701 238.16C570.741 238.16 566.709 234.416 566.709 229.808C566.709 225.2 570.741 221.456 575.701 221.456ZM575.701 234.8C578.645 234.8 581.045 232.56 581.045 229.808C581.045 227.056 578.645 224.816 575.701 224.816C572.789 224.816 570.389 227.056 570.389 229.808C570.389 232.56 572.789 234.8 575.701 234.8ZM602.712 237.808H599.032V229.104V228.592C599.032 228.464 599 228.304 599 228.176C598.968 227.856 598.904 227.6 598.84 227.312C598.68 226.8 598.424 226.288 598.136 225.936C597.848 225.552 597.496 225.264 597.08 225.072C596.696 224.848 596.248 224.72 595.704 224.688C595.128 224.624 594.648 224.656 594.136 224.784C593.624 224.912 593.112 225.168 592.632 225.552C592.184 225.936 591.8 226.512 591.512 227.12C591.256 227.728 591.096 228.4 591.064 229.104C591.032 229.296 591 229.52 591 229.712V237.808H587.32V221.808H591V223.728C591.416 223.152 591.96 222.608 592.632 222.224C593.56 221.68 594.648 221.392 595.704 221.328C596.216 221.328 596.76 221.36 597.304 221.424C597.848 221.52 598.392 221.712 598.904 221.936C599.416 222.16 599.864 222.48 600.28 222.832C600.696 223.184 601.048 223.568 601.336 223.984C601.944 224.816 602.264 225.68 602.488 226.576C602.584 227.024 602.648 227.472 602.68 227.888C602.68 228.112 602.712 228.304 602.712 228.528V229.104V237.808ZM612.892 227.92C614.716 228.464 618.492 229.648 618.62 233.2C618.652 234.48 618.14 235.632 617.148 236.528C615.932 237.616 614.14 238.192 612.156 238.192C612.028 238.192 611.9 238.192 611.74 238.192C608.412 238.064 605.724 236.24 604.924 233.552L608.476 232.656C608.924 234.192 610.556 234.8 611.932 234.832C612.988 234.896 614.012 234.608 614.556 234.128C614.812 233.904 614.94 233.616 614.94 233.296C614.908 232.272 613.756 231.728 611.708 231.088C611.42 231.024 611.164 230.928 610.94 230.864C610.844 230.832 610.716 230.768 610.588 230.736C609.18 230.288 605.436 229.072 605.724 225.776C605.948 222.768 609.02 221.424 611.74 221.424C614.716 221.424 616.956 222.64 617.98 224.88L614.588 226.192C614.3 225.584 613.692 224.784 611.74 224.784C611.708 224.784 609.5 224.816 609.404 226.032C609.34 226.672 610.524 227.152 611.836 227.568C611.996 227.632 612.156 227.664 612.252 227.728C612.444 227.792 612.636 227.856 612.892 227.92ZM643.153 221.808H646.833V237.808H643.153V235.6C642.449 236.336 641.585 236.944 640.625 237.392C639.569 237.872 638.385 238.128 637.169 238.16C635.985 238.192 634.769 237.968 633.649 237.552C632.529 237.136 631.537 236.496 630.705 235.696C629.073 234.128 628.145 231.952 628.177 229.808C628.145 227.664 629.073 225.488 630.705 223.92C631.537 223.152 632.529 222.512 633.649 222.064C634.769 221.648 635.985 221.456 637.169 221.456C638.385 221.488 639.569 221.744 640.625 222.224C641.585 222.672 642.449 223.312 643.153 224.016V221.808ZM641.201 233.584C642.385 232.688 643.153 231.28 643.153 229.808C643.153 228.336 642.385 226.928 641.201 226.064C640.625 225.616 639.953 225.264 639.281 225.072C638.577 224.88 637.873 224.784 637.169 224.816C635.761 224.88 634.417 225.392 633.425 226.32C632.433 227.216 631.857 228.496 631.857 229.808C631.857 231.12 632.433 232.4 633.425 233.296C634.417 234.224 635.761 234.736 637.169 234.8C637.873 234.832 638.577 234.736 639.281 234.544C639.953 234.352 640.625 234.032 641.201 233.584ZM660.211 221.424C660.531 221.488 660.851 221.584 661.171 221.68L660.339 225.264C660.211 225.2 660.115 225.136 659.987 225.072C659.603 224.848 659.155 224.72 658.611 224.688C658.035 224.624 657.555 224.656 657.043 224.784C656.531 224.912 656.019 225.136 655.539 225.552C655.091 225.936 654.707 226.512 654.419 227.12C654.163 227.728 654.003 228.4 653.971 229.104C653.939 229.296 653.907 229.52 653.907 229.712V237.808H650.227V221.808H653.907V223.728C654.323 223.152 654.867 222.608 655.571 222.224C656.467 221.68 657.555 221.392 658.611 221.328C659.123 221.328 659.667 221.36 660.211 221.424ZM678.8 231.184H665.456C666.192 233.264 668.464 234.8 671.152 234.8C672.976 234.8 674.672 234.096 675.76 232.976L679.184 234.416C677.424 236.72 674.448 238.16 671.152 238.16C665.872 238.16 661.552 234.416 661.552 229.808C661.552 225.2 665.584 221.456 670.544 221.456C675.536 221.456 679.568 225.2 679.568 229.808C679.568 230.288 679.536 230.736 679.44 231.184H678.8ZM665.456 228.432H675.664C675.024 226.352 672.976 224.816 670.544 224.816C668.144 224.816 666.096 226.352 665.456 228.432ZM698.107 234.8C699.803 234.8 701.371 234.064 702.363 232.784L705.371 234.768C703.675 236.88 700.955 238.16 698.107 238.16C693.115 238.16 689.083 234.384 689.115 229.776C689.115 227.568 690.043 225.488 691.739 223.888C693.435 222.32 695.707 221.456 698.107 221.456C698.139 221.456 698.139 221.456 698.139 221.456C701.019 221.456 703.739 222.768 705.403 224.912L702.395 226.864C701.403 225.552 699.835 224.816 698.139 224.816H698.107C696.699 224.816 695.387 225.328 694.363 226.256C693.371 227.184 692.795 228.464 692.795 229.808C692.795 232.56 695.163 234.8 698.107 234.8ZM715.669 221.456C720.661 221.456 724.693 225.2 724.693 229.808C724.693 234.416 720.661 238.16 715.669 238.16C710.709 238.16 706.677 234.416 706.677 229.808C706.677 225.2 710.709 221.456 715.669 221.456ZM715.669 234.8C718.613 234.8 721.013 232.56 721.013 229.808C721.013 227.056 718.613 224.816 715.669 224.816C712.757 224.816 710.357 227.056 710.357 229.808C710.357 232.56 712.757 234.8 715.669 234.8ZM742.681 237.808H739.001V229.104V228.592C739.001 228.464 738.969 228.304 738.969 228.176C738.937 227.856 738.873 227.6 738.809 227.312C738.649 226.8 738.393 226.288 738.105 225.936C737.817 225.552 737.465 225.264 737.049 225.072C736.665 224.848 736.217 224.72 735.673 224.688C735.097 224.624 734.617 224.656 734.105 224.784C733.593 224.912 733.081 225.168 732.601 225.552C732.153 225.936 731.769 226.512 731.481 227.12C731.225 227.728 731.065 228.4 731.033 229.104C731.001 229.296 730.969 229.52 730.969 229.712V237.808H727.289V221.808H730.969V223.728C731.385 223.152 731.929 222.608 732.601 222.224C733.529 221.68 734.617 221.392 735.673 221.328C736.185 221.328 736.729 221.36 737.273 221.424C737.817 221.52 738.361 221.712 738.873 221.936C739.385 222.16 739.833 222.48 740.249 222.832C740.665 223.184 741.017 223.568 741.305 223.984C741.913 224.816 742.233 225.68 742.457 226.576C742.553 227.024 742.617 227.472 742.649 227.888C742.649 228.112 742.681 228.304 742.681 228.528V229.104V237.808ZM759.997 215.408H763.677V237.808H759.997V235.6C759.293 236.336 758.429 236.944 757.469 237.392C756.413 237.872 755.229 238.128 754.013 238.16C752.829 238.192 751.613 238 750.493 237.552C749.373 237.136 748.381 236.496 747.549 235.696C745.917 234.128 744.989 231.952 745.021 229.808C744.989 227.664 745.917 225.488 747.549 223.92C748.381 223.152 749.373 222.512 750.493 222.064C751.613 221.648 752.829 221.456 754.013 221.456C755.229 221.488 756.413 221.744 757.469 222.224C758.429 222.672 759.293 223.312 759.997 224.016V215.408ZM758.045 233.584C759.229 232.688 759.997 231.28 759.997 229.808C759.997 228.336 759.229 226.928 758.045 226.064C757.469 225.616 756.797 225.264 756.125 225.072C755.421 224.88 754.717 224.784 754.013 224.816C752.605 224.88 751.261 225.392 750.269 226.32C749.277 227.216 748.701 228.496 748.701 229.808C748.701 231.12 749.277 232.4 750.269 233.296C751.261 234.224 752.605 234.736 754.013 234.8C754.717 234.832 755.421 234.736 756.125 234.544C756.797 234.352 757.469 234.032 758.045 233.584ZM778.526 221.808H782.206V237.808H778.526V235.888C778.11 236.464 777.534 237.008 776.862 237.392C775.966 237.936 774.846 238.256 773.822 238.288C773.31 238.32 772.766 238.288 772.222 238.192C771.678 238.096 771.134 237.904 770.622 237.68C770.11 237.456 769.63 237.136 769.214 236.816C768.798 236.464 768.446 236.048 768.158 235.632C767.582 234.8 767.23 233.936 767.038 233.04C766.942 232.592 766.878 232.176 766.846 231.728C766.814 231.504 766.814 231.312 766.814 231.088V230.512V221.808H770.494V230.512V231.024C770.494 231.152 770.494 231.312 770.526 231.472C770.558 231.76 770.59 232.048 770.686 232.304C770.814 232.816 771.07 233.328 771.39 233.68C771.678 234.064 772.03 234.352 772.414 234.544C772.83 234.768 773.278 234.896 773.822 234.928C774.366 234.992 774.878 234.992 775.39 234.832C775.902 234.704 776.414 234.48 776.862 234.064C777.342 233.68 777.726 233.104 777.982 232.496C778.27 231.888 778.398 231.248 778.462 230.512C778.494 230.32 778.494 230.128 778.526 229.904V221.808ZM793.826 234.8C795.522 234.8 797.09 234.064 798.082 232.784L801.09 234.768C799.394 236.88 796.674 238.16 793.826 238.16C788.834 238.16 784.802 234.384 784.834 229.776C784.834 227.568 785.762 225.488 787.458 223.888C789.154 222.32 791.426 221.456 793.826 221.456C793.858 221.456 793.858 221.456 793.858 221.456C796.738 221.456 799.458 222.768 801.122 224.912L798.114 226.864C797.122 225.552 795.554 224.816 793.858 224.816H793.826C792.418 224.816 791.106 225.328 790.082 226.256C789.09 227.184 788.514 228.464 788.514 229.808C788.514 232.56 790.882 234.8 793.826 234.8ZM814.006 225.296H809.462V231.824C809.462 233.84 809.782 234.224 810.134 234.416C810.806 234.864 812.63 234.736 814.006 234.576V237.968C813.302 238.032 812.598 238.096 811.894 238.096C810.422 238.096 809.046 237.872 807.99 237.168C806.038 235.888 805.75 233.84 805.75 231.824V225.296H802.166V221.936H805.75V218.32L809.462 216.4V221.936H814.006V225.296ZM832.706 231.184H819.362C820.098 233.264 822.37 234.8 825.058 234.8C826.882 234.8 828.578 234.096 829.666 232.976L833.09 234.416C831.33 236.72 828.354 238.16 825.058 238.16C819.778 238.16 815.458 234.416 815.458 229.808C815.458 225.2 819.49 221.456 824.45 221.456C829.442 221.456 833.474 225.2 833.474 229.808C833.474 230.288 833.442 230.736 833.346 231.184H832.706ZM819.362 228.432H829.57C828.93 226.352 826.882 224.816 824.45 224.816C822.05 224.816 820.002 226.352 819.362 228.432ZM850.31 215.408H853.99V237.808H850.31V235.6C849.606 236.336 848.742 236.944 847.782 237.392C846.726 237.872 845.542 238.128 844.326 238.16C843.142 238.192 841.926 238 840.806 237.552C839.686 237.136 838.694 236.496 837.862 235.696C836.23 234.128 835.302 231.952 835.334 229.808C835.302 227.664 836.23 225.488 837.862 223.92C838.694 223.152 839.686 222.512 840.806 222.064C841.926 221.648 843.142 221.456 844.326 221.456C845.542 221.488 846.726 221.744 847.782 222.224C848.742 222.672 849.606 223.312 850.31 224.016V215.408ZM848.358 233.584C849.542 232.688 850.31 231.28 850.31 229.808C850.31 228.336 849.542 226.928 848.358 226.064C847.782 225.616 847.11 225.264 846.438 225.072C845.734 224.88 845.03 224.784 844.326 224.816C842.918 224.88 841.574 225.392 840.582 226.32C839.59 227.216 839.014 228.496 839.014 229.808C839.014 231.12 839.59 232.4 840.582 233.296C841.574 234.224 842.918 234.736 844.326 234.8C845.03 234.832 845.734 234.736 846.438 234.544C847.11 234.352 847.782 234.032 848.358 233.584ZM885.55 221.84H889.55L882.19 237.808H878.67L876.59 232.528L874.51 237.808H870.958L863.63 221.84H867.63L872.75 232.976L874.574 228.944L871.31 221.84H875.31L876.59 225.392L877.87 221.84H881.87L878.574 228.944L880.43 232.976L885.55 221.84ZM895.157 237.808H891.445V221.808H895.157V237.808ZM893.301 220.112C891.989 220.112 890.965 219.056 890.965 217.776C890.965 216.464 891.989 215.408 893.301 215.408C894.613 215.408 895.637 216.464 895.637 217.776C895.637 219.056 894.613 220.112 893.301 220.112ZM909.069 225.296H904.525V231.824C904.525 233.84 904.845 234.224 905.197 234.416C905.869 234.864 907.693 234.736 909.069 234.576V237.968C908.365 238.032 907.661 238.096 906.957 238.096C905.485 238.096 904.109 237.872 903.053 237.168C901.101 235.888 900.812 233.84 900.812 231.824V225.296H897.229V221.936H900.812V218.32L904.525 216.4V221.936H909.069V225.296ZM927.087 237.808H923.375V229.104C923.375 228.432 923.311 227.888 923.151 227.344C922.991 226.8 922.735 226.32 922.447 225.936C921.839 225.168 921.071 224.784 919.983 224.688C919.439 224.624 918.927 224.688 918.447 224.816C917.935 224.976 917.455 225.232 917.039 225.616C916.591 226.032 916.239 226.576 915.951 227.152C915.695 227.76 915.535 228.4 915.471 229.104C915.439 229.296 915.439 229.488 915.407 229.68V237.808H911.727V215.408H915.407V223.408C915.823 222.928 916.335 222.512 916.911 222.16C917.359 221.904 917.871 221.712 918.415 221.552C918.927 221.424 919.47 221.36 919.983 221.328C921.007 221.296 922.191 221.456 923.183 221.936C924.207 222.416 925.071 223.152 925.647 223.952C926.831 225.616 927.087 227.504 927.055 229.104L927.087 237.808ZM949.339 221.808H953.019V237.808H949.339V235.888C948.923 236.464 948.347 237.008 947.675 237.392C946.779 237.936 945.659 238.256 944.635 238.288C944.123 238.32 943.579 238.288 943.035 238.192C942.491 238.096 941.947 237.904 941.435 237.68C940.923 237.456 940.443 237.136 940.027 236.816C939.611 236.464 939.259 236.048 938.971 235.632C938.395 234.8 938.043 233.936 937.851 233.04C937.755 232.592 937.691 232.176 937.659 231.728C937.627 231.504 937.627 231.312 937.627 231.088V230.512V221.808H941.307V230.512V231.024C941.307 231.152 941.307 231.312 941.339 231.472C941.371 231.76 941.403 232.048 941.499 232.304C941.627 232.816 941.883 233.328 942.203 233.68C942.491 234.064 942.843 234.352 943.227 234.544C943.643 234.768 944.091 234.896 944.635 234.928C945.179 234.992 945.691 234.992 946.203 234.832C946.715 234.704 947.227 234.48 947.675 234.064C948.155 233.68 948.539 233.104 948.795 232.496C949.083 231.888 949.211 231.248 949.275 230.512C949.307 230.32 949.307 230.128 949.339 229.904V221.808ZM967.006 225.296H962.462V231.824C962.462 233.84 962.782 234.224 963.134 234.416C963.806 234.864 965.63 234.736 967.006 234.576V237.968C966.302 238.032 965.598 238.096 964.894 238.096C963.422 238.096 962.046 237.872 960.99 237.168C959.038 235.888 958.75 233.84 958.75 231.824V225.296H955.166V221.936H958.75V218.32L962.462 216.4V221.936H967.006V225.296ZM994.272 237.808H990.56V229.264V228.208C990.56 227.92 990.56 227.632 990.496 227.376C990.464 227.088 990.368 226.832 990.304 226.608C990.208 226.352 990.08 226.128 989.952 225.936C989.696 225.552 989.408 225.264 989.056 225.072C988.896 224.976 988.704 224.88 988.512 224.816C988.32 224.752 988.096 224.688 987.84 224.688C987.36 224.624 986.912 224.624 986.432 224.752C985.984 224.88 985.472 225.168 985.056 225.584C984.64 226.032 984.288 226.608 984.096 227.216C983.968 227.536 983.904 227.888 983.872 228.208C983.84 228.496 983.808 228.752 983.776 229.04V229.264L983.808 237.808H980.096L980.128 229.264V228.208C980.096 227.92 980.096 227.632 980.032 227.376C980 227.088 979.936 226.832 979.84 226.608C979.744 226.352 979.616 226.128 979.488 225.936C979.232 225.552 978.944 225.264 978.592 225.072C978.432 224.976 978.272 224.88 978.048 224.816C977.856 224.752 977.632 224.688 977.408 224.688C976.896 224.624 976.448 224.624 975.968 224.752C975.52 224.88 975.008 225.168 974.592 225.584C974.176 226.032 973.824 226.608 973.632 227.216C973.504 227.536 973.44 227.888 973.408 228.208C973.376 228.464 973.376 228.688 973.344 228.944V237.808H969.664V221.808H973.344V223.312C973.6 222.96 973.952 222.64 974.336 222.352C974.784 222.064 975.264 221.808 975.808 221.616C976.32 221.456 976.864 221.36 977.408 221.328C977.92 221.328 978.496 221.36 979.04 221.456C979.616 221.584 980.16 221.776 980.64 222.064C981.664 222.608 982.432 223.44 982.88 224.304C982.944 224.432 983.008 224.528 983.072 224.656C983.36 223.824 983.936 222.96 984.8 222.352C985.248 222.032 985.728 221.808 986.272 221.616C986.784 221.456 987.328 221.36 987.872 221.328C988.384 221.328 988.96 221.36 989.504 221.456C990.08 221.584 990.624 221.776 991.104 222.064C992.128 222.608 992.896 223.44 993.344 224.304C993.6 224.72 993.76 225.168 993.888 225.616C994.048 226.064 994.144 226.48 994.176 226.928C994.24 227.376 994.272 227.792 994.272 228.208V229.264V237.808ZM1005.67 221.456C1010.66 221.456 1014.69 225.2 1014.69 229.808C1014.69 234.416 1010.66 238.16 1005.67 238.16C1000.71 238.16 996.677 234.416 996.677 229.808C996.677 225.2 1000.71 221.456 1005.67 221.456ZM1005.67 234.8C1008.61 234.8 1011.01 232.56 1011.01 229.808C1011.01 227.056 1008.61 224.816 1005.67 224.816C1002.76 224.816 1000.36 227.056 1000.36 229.808C1000.36 232.56 1002.76 234.8 1005.67 234.8ZM1024.36 227.92C1026.19 228.464 1029.96 229.648 1030.09 233.2C1030.12 234.48 1029.61 235.632 1028.62 236.528C1027.4 237.616 1025.61 238.192 1023.62 238.192C1023.5 238.192 1023.37 238.192 1023.21 238.192C1019.88 238.064 1017.19 236.24 1016.39 233.552L1019.95 232.656C1020.39 234.192 1022.03 234.8 1023.4 234.832C1024.46 234.896 1025.48 234.608 1026.03 234.128C1026.28 233.904 1026.41 233.616 1026.41 233.296C1026.38 232.272 1025.23 231.728 1023.18 231.088C1022.89 231.024 1022.63 230.928 1022.41 230.864C1022.31 230.832 1022.19 230.768 1022.06 230.736C1020.65 230.288 1016.91 229.072 1017.19 225.776C1017.42 222.768 1020.49 221.424 1023.21 221.424C1026.19 221.424 1028.43 222.64 1029.45 224.88L1026.06 226.192C1025.77 225.584 1025.16 224.784 1023.21 224.784C1023.18 224.784 1020.97 224.816 1020.87 226.032C1020.81 226.672 1021.99 227.152 1023.31 227.568C1023.47 227.632 1023.62 227.664 1023.72 227.728C1023.91 227.792 1024.11 227.856 1024.36 227.92ZM1043.32 225.296H1038.77V231.824C1038.77 233.84 1039.09 234.224 1039.45 234.416C1040.12 234.864 1041.94 234.736 1043.32 234.576V237.968C1042.61 238.032 1041.91 238.096 1041.21 238.096C1039.73 238.096 1038.36 237.872 1037.3 237.168C1035.35 235.888 1035.06 233.84 1035.06 231.824V225.296H1031.48V221.936H1035.06V218.32L1038.77 216.4V221.936H1043.32V225.296ZM1061.89 234.8C1063.58 234.8 1065.15 234.064 1066.14 232.784L1069.15 234.768C1067.46 236.88 1064.74 238.16 1061.89 238.16C1056.9 238.16 1052.86 234.384 1052.9 229.776C1052.9 227.568 1053.82 225.488 1055.52 223.888C1057.22 222.32 1059.49 221.456 1061.89 221.456C1061.92 221.456 1061.92 221.456 1061.92 221.456C1064.8 221.456 1067.52 222.768 1069.18 224.912L1066.18 226.864C1065.18 225.552 1063.62 224.816 1061.92 224.816H1061.89C1060.48 224.816 1059.17 225.328 1058.14 226.256C1057.15 227.184 1056.58 228.464 1056.58 229.808C1056.58 232.56 1058.94 234.8 1061.89 234.8ZM1079.45 221.456C1084.44 221.456 1088.47 225.2 1088.47 229.808C1088.47 234.416 1084.44 238.16 1079.45 238.16C1074.49 238.16 1070.46 234.416 1070.46 229.808C1070.46 225.2 1074.49 221.456 1079.45 221.456ZM1079.45 234.8C1082.39 234.8 1084.79 232.56 1084.79 229.808C1084.79 227.056 1082.39 224.816 1079.45 224.816C1076.54 224.816 1074.14 227.056 1074.14 229.808C1074.14 232.56 1076.54 234.8 1079.45 234.8ZM1106.46 237.808H1102.78V229.104V228.592C1102.78 228.464 1102.75 228.304 1102.75 228.176C1102.72 227.856 1102.65 227.6 1102.59 227.312C1102.43 226.8 1102.17 226.288 1101.89 225.936C1101.6 225.552 1101.25 225.264 1100.83 225.072C1100.45 224.848 1100 224.72 1099.45 224.688C1098.88 224.624 1098.4 224.656 1097.89 224.784C1097.37 224.912 1096.86 225.168 1096.38 225.552C1095.93 225.936 1095.55 226.512 1095.26 227.12C1095.01 227.728 1094.85 228.4 1094.81 229.104C1094.78 229.296 1094.75 229.52 1094.75 229.712V237.808H1091.07V221.808H1094.75V223.728C1095.17 223.152 1095.71 222.608 1096.38 222.224C1097.31 221.68 1098.4 221.392 1099.45 221.328C1099.97 221.328 1100.51 221.36 1101.05 221.424C1101.6 221.52 1102.14 221.712 1102.65 221.936C1103.17 222.16 1103.61 222.48 1104.03 222.832C1104.45 223.184 1104.8 223.568 1105.09 223.984C1105.69 224.816 1106.01 225.68 1106.24 226.576C1106.33 227.024 1106.4 227.472 1106.43 227.888C1106.43 228.112 1106.46 228.304 1106.46 228.528V229.104V237.808ZM1116 219.056C1115.71 219.28 1115.17 219.696 1115.17 221.488V221.808H1119.43V225.168H1115.17V237.808H1111.49V225.168H1108.32V221.808H1111.49V221.488C1111.49 219.216 1112.13 217.648 1113.57 216.528C1115.27 215.184 1117.38 215.088 1119.43 215.184V218.544C1117.73 218.48 1116.67 218.544 1116 219.056ZM1125.22 237.808H1121.51V221.808H1125.22V237.808ZM1123.36 220.112C1122.05 220.112 1121.03 219.056 1121.03 217.776C1121.03 216.464 1122.05 215.408 1123.36 215.408C1124.68 215.408 1125.7 216.464 1125.7 217.776C1125.7 219.056 1124.68 220.112 1123.36 220.112ZM1142.75 215.408H1146.43V237.808H1142.75V235.6C1142.04 236.336 1141.18 236.944 1140.22 237.392C1139.16 237.872 1137.98 238.128 1136.76 238.16C1135.58 238.192 1134.36 238 1133.24 237.552C1132.12 237.136 1131.13 236.496 1130.3 235.696C1128.67 234.128 1127.74 231.952 1127.77 229.808C1127.74 227.664 1128.67 225.488 1130.3 223.92C1131.13 223.152 1132.12 222.512 1133.24 222.064C1134.36 221.648 1135.58 221.456 1136.76 221.456C1137.98 221.488 1139.16 221.744 1140.22 222.224C1141.18 222.672 1142.04 223.312 1142.75 224.016V215.408ZM1140.8 233.584C1141.98 232.688 1142.75 231.28 1142.75 229.808C1142.75 228.336 1141.98 226.928 1140.8 226.064C1140.22 225.616 1139.55 225.264 1138.88 225.072C1138.17 224.88 1137.47 224.784 1136.76 224.816C1135.36 224.88 1134.01 225.392 1133.02 226.32C1132.03 227.216 1131.45 228.496 1131.45 229.808C1131.45 231.12 1132.03 232.4 1133.02 233.296C1134.01 234.224 1135.36 234.736 1136.76 234.8C1137.47 234.832 1138.17 234.736 1138.88 234.544C1139.55 234.352 1140.22 234.032 1140.8 233.584ZM1166.27 231.184H1152.92C1153.66 233.264 1155.93 234.8 1158.62 234.8C1160.44 234.8 1162.14 234.096 1163.23 232.976L1166.65 234.416C1164.89 236.72 1161.92 238.16 1158.62 238.16C1153.34 238.16 1149.02 234.416 1149.02 229.808C1149.02 225.2 1153.05 221.456 1158.01 221.456C1163 221.456 1167.04 225.2 1167.04 229.808C1167.04 230.288 1167 230.736 1166.91 231.184H1166.27ZM1152.92 228.432H1163.13C1162.49 226.352 1160.44 224.816 1158.01 224.816C1155.61 224.816 1153.56 226.352 1152.92 228.432ZM1185.06 237.808H1181.38V229.104V228.592C1181.38 228.464 1181.34 228.304 1181.34 228.176C1181.31 227.856 1181.25 227.6 1181.18 227.312C1181.02 226.8 1180.77 226.288 1180.48 225.936C1180.19 225.552 1179.84 225.264 1179.42 225.072C1179.04 224.848 1178.59 224.72 1178.05 224.688C1177.47 224.624 1176.99 224.656 1176.48 224.784C1175.97 224.912 1175.46 225.168 1174.98 225.552C1174.53 225.936 1174.14 226.512 1173.86 227.12C1173.6 227.728 1173.44 228.4 1173.41 229.104C1173.38 229.296 1173.34 229.52 1173.34 229.712V237.808H1169.66V221.808H1173.34V223.728C1173.76 223.152 1174.3 222.608 1174.98 222.224C1175.9 221.68 1176.99 221.392 1178.05 221.328C1178.56 221.328 1179.1 221.36 1179.65 221.424C1180.19 221.52 1180.74 221.712 1181.25 221.936C1181.76 222.16 1182.21 222.48 1182.62 222.832C1183.04 223.184 1183.39 223.568 1183.68 223.984C1184.29 224.816 1184.61 225.68 1184.83 226.576C1184.93 227.024 1184.99 227.472 1185.02 227.888C1185.02 228.112 1185.06 228.304 1185.06 228.528V229.104V237.808ZM1196.39 234.8C1198.08 234.8 1199.65 234.064 1200.64 232.784L1203.65 234.768C1201.96 236.88 1199.24 238.16 1196.39 238.16C1191.4 238.16 1187.36 234.384 1187.4 229.776C1187.4 227.568 1188.32 225.488 1190.02 223.888C1191.72 222.32 1193.99 221.456 1196.39 221.456C1196.42 221.456 1196.42 221.456 1196.42 221.456C1199.3 221.456 1202.02 222.768 1203.68 224.912L1200.68 226.864C1199.68 225.552 1198.12 224.816 1196.42 224.816H1196.39C1194.98 224.816 1193.67 225.328 1192.64 226.256C1191.65 227.184 1191.08 228.464 1191.08 229.808C1191.08 232.56 1193.44 234.8 1196.39 234.8ZM1222.17 231.184H1208.83C1209.57 233.264 1211.84 234.8 1214.53 234.8C1216.35 234.8 1218.05 234.096 1219.13 232.976L1222.56 234.416C1220.8 236.72 1217.82 238.16 1214.53 238.16C1209.25 238.16 1204.93 234.416 1204.93 229.808C1204.93 225.2 1208.96 221.456 1213.92 221.456C1218.91 221.456 1222.94 225.2 1222.94 229.808C1222.94 230.288 1222.91 230.736 1222.81 231.184H1222.17ZM1208.83 228.432H1219.04C1218.4 226.352 1216.35 224.816 1213.92 224.816C1211.52 224.816 1209.47 226.352 1208.83 228.432ZM1227.01 238.224C1225.7 238.224 1224.67 237.168 1224.67 235.856C1224.67 234.544 1225.7 233.52 1227.01 233.52C1228.32 233.52 1229.35 234.544 1229.35 235.856C1229.35 237.168 1228.32 238.224 1227.01 238.224Z" fill="black"/>
<defs>
<linearGradient id="paint0_linear_1444_43498" x1="1440" y1="-0.000220778" x2="1467.88" y2="218.997" gradientUnits="userSpaceOnUse">
<stop stop-color="#B2F35E"/>
<stop offset="1" stop-color="#85F35E"/>
</linearGradient>
</defs>
</svg>
