<svg width="48" height="48" viewBox="0 0 48 48" fill="none" xmlns="http://www.w3.org/2000/svg">
<rect width="48" height="48" fill="#B2F35E"/>
<path d="M22.8998 14.1001L32.7988 15.5151L34.2128 25.4151L25.0208 34.6071C24.8333 34.7946 24.579 34.8999 24.3138 34.8999C24.0487 34.8999 23.7944 34.7946 23.6068 34.6071L13.7068 24.7071C13.5194 24.5196 13.4141 24.2653 13.4141 24.0001C13.4141 23.7349 13.5194 23.4806 13.7068 23.2931L22.8998 14.1001ZM23.6068 16.2221L15.8278 24.0001L24.3138 32.4851L32.0918 24.7071L31.0318 17.2821L23.6068 16.2221ZM25.7268 22.5861C25.3517 22.2108 25.141 21.7019 25.1411 21.1712C25.1411 20.9085 25.1929 20.6483 25.2935 20.4056C25.3941 20.1629 25.5415 19.9424 25.7273 19.7566C25.9132 19.5708 26.1338 19.4235 26.3765 19.323C26.6193 19.2225 26.8795 19.1708 27.1422 19.1708C27.6728 19.1709 28.1817 19.3818 28.5568 19.7571C28.932 20.1324 29.1427 20.6413 29.1426 21.172C29.1425 21.7026 28.9316 22.2114 28.5563 22.5866C28.1811 22.9617 27.6721 23.1724 27.1415 23.1724C26.6109 23.1723 26.102 22.9614 25.7268 22.5861Z" fill="url(#paint0_linear_1951_26399)"/>
<defs>
<linearGradient id="paint0_linear_1951_26399" x1="23.8135" y1="14.1001" x2="23.8135" y2="34.8999" gradientUnits="userSpaceOnUse">
<stop/>
<stop offset="1" stop-opacity="0.6"/>
</linearGradient>
</defs>
</svg>
