<svg width="1440" height="320" viewBox="0 0 1440 320" fill="none" xmlns="http://www.w3.org/2000/svg">
<rect width="1440" height="320" fill="url(#paint0_linear_1425_49709)"/>
<path d="M385.625 121.632L394.489 144H390.553L388.409 138.592H377.753L375.609 144H371.705L380.537 121.632H385.625ZM379.097 135.232H387.097L383.097 125.12L379.097 135.232ZM404.74 131.296H400.196V137.824C400.196 139.84 400.516 140.224 400.868 140.416C401.54 140.864 403.364 140.736 404.74 140.576V143.968C404.036 144.032 403.332 144.096 402.628 144.096C401.156 144.096 399.78 143.872 398.724 143.168C396.772 141.888 396.484 139.84 396.484 137.824V131.296H392.9V127.936H396.484V124.32L400.196 122.4V127.936H404.74V131.296ZM418.958 144H415.278V121.632H418.958V144ZM437.915 143.808H434.235V135.104V134.592C434.235 134.464 434.203 134.304 434.203 134.176C434.171 133.856 434.107 133.6 434.043 133.312C433.883 132.8 433.627 132.288 433.339 131.936C433.051 131.552 432.699 131.264 432.283 131.072C431.899 130.848 431.451 130.72 430.907 130.688C430.331 130.624 429.851 130.656 429.339 130.784C428.827 130.912 428.315 131.168 427.835 131.552C427.387 131.936 427.003 132.512 426.715 133.12C426.459 133.728 426.299 134.4 426.267 135.104C426.235 135.296 426.203 135.52 426.203 135.712V143.808H422.523V127.808H426.203V129.728C426.619 129.152 427.163 128.608 427.835 128.224C428.763 127.68 429.851 127.392 430.907 127.328C431.419 127.328 431.963 127.36 432.507 127.424C433.051 127.52 433.595 127.712 434.107 127.936C434.619 128.16 435.067 128.48 435.483 128.832C435.899 129.184 436.251 129.568 436.539 129.984C437.147 130.816 437.467 131.68 437.691 132.576C437.787 133.024 437.851 133.472 437.883 133.888C437.883 134.112 437.915 134.304 437.915 134.528V135.104V143.808ZM447.455 125.056C447.167 125.28 446.623 125.696 446.623 127.488V127.808H450.879V131.168H446.623V143.808H442.943V131.168H439.775V127.808H442.943V127.488C442.943 125.216 443.583 123.648 445.023 122.528C446.719 121.184 448.831 121.088 450.879 121.184V124.544C449.183 124.48 448.127 124.544 447.455 125.056ZM456.672 143.808H452.96V127.808H456.672V143.808ZM454.816 126.112C453.504 126.112 452.48 125.056 452.48 123.776C452.48 122.464 453.504 121.408 454.816 121.408C456.128 121.408 457.152 122.464 457.152 123.776C457.152 125.056 456.128 126.112 454.816 126.112ZM475.384 143.808H471.704V135.104V134.592C471.704 134.464 471.672 134.304 471.672 134.176C471.64 133.856 471.576 133.6 471.512 133.312C471.352 132.8 471.096 132.288 470.808 131.936C470.52 131.552 470.168 131.264 469.752 131.072C469.368 130.848 468.92 130.72 468.376 130.688C467.8 130.624 467.32 130.656 466.808 130.784C466.296 130.912 465.784 131.168 465.304 131.552C464.856 131.936 464.472 132.512 464.184 133.12C463.928 133.728 463.768 134.4 463.736 135.104C463.704 135.296 463.672 135.52 463.672 135.712V143.808H459.992V127.808H463.672V129.728C464.088 129.152 464.632 128.608 465.304 128.224C466.232 127.68 467.32 127.392 468.376 127.328C468.888 127.328 469.432 127.36 469.976 127.424C470.52 127.52 471.064 127.712 471.576 127.936C472.088 128.16 472.536 128.48 472.952 128.832C473.368 129.184 473.72 129.568 474.008 129.984C474.616 130.816 474.936 131.68 475.16 132.576C475.256 133.024 475.32 133.472 475.352 133.888C475.352 134.112 475.384 134.304 475.384 134.528V135.104V143.808ZM481.922 143.808H478.21V127.808H481.922V143.808ZM480.066 126.112C478.754 126.112 477.73 125.056 477.73 123.776C477.73 122.464 478.754 121.408 480.066 121.408C481.378 121.408 482.402 122.464 482.402 123.776C482.402 125.056 481.378 126.112 480.066 126.112ZM495.834 131.296H491.29V137.824C491.29 139.84 491.61 140.224 491.962 140.416C492.634 140.864 494.458 140.736 495.834 140.576V143.968C495.13 144.032 494.426 144.096 493.722 144.096C492.25 144.096 490.874 143.872 489.818 143.168C487.866 141.888 487.578 139.84 487.578 137.824V131.296H483.994V127.936H487.578V124.32L491.29 122.4V127.936H495.834V131.296ZM514.534 137.184H501.19C501.926 139.264 504.198 140.8 506.886 140.8C508.71 140.8 510.406 140.096 511.494 138.976L514.918 140.416C513.158 142.72 510.182 144.16 506.886 144.16C501.606 144.16 497.286 140.416 497.286 135.808C497.286 131.2 501.318 127.456 506.278 127.456C511.27 127.456 515.302 131.2 515.302 135.808C515.302 136.288 515.27 136.736 515.174 137.184H514.534ZM501.19 134.432H511.398C510.758 132.352 508.71 130.816 506.278 130.816C503.878 130.816 501.83 132.352 501.19 134.432ZM541.009 124.96H529.521V131.04H540.145V134.368H529.521V140.64H541.009V144H529.521H525.841V121.6H541.009V124.96ZM550.908 133.92C552.732 134.464 556.508 135.648 556.636 139.2C556.668 140.48 556.156 141.632 555.164 142.528C553.948 143.616 552.156 144.192 550.172 144.192C550.044 144.192 549.916 144.192 549.756 144.192C546.428 144.064 543.74 142.24 542.94 139.552L546.492 138.656C546.94 140.192 548.572 140.8 549.948 140.832C551.004 140.896 552.028 140.608 552.572 140.128C552.828 139.904 552.956 139.616 552.956 139.296C552.924 138.272 551.772 137.728 549.724 137.088C549.436 137.024 549.18 136.928 548.956 136.864C548.86 136.832 548.732 136.768 548.604 136.736C547.196 136.288 543.452 135.072 543.74 131.776C543.964 128.768 547.036 127.424 549.756 127.424C552.732 127.424 554.972 128.64 555.996 130.88L552.604 132.192C552.316 131.584 551.708 130.784 549.756 130.784C549.724 130.784 547.516 130.816 547.42 132.032C547.356 132.672 548.54 133.152 549.852 133.568C550.012 133.632 550.172 133.664 550.268 133.728C550.46 133.792 550.652 133.856 550.908 133.92ZM567.497 140.8C569.193 140.8 570.761 140.064 571.753 138.784L574.761 140.768C573.065 142.88 570.345 144.16 567.497 144.16C562.505 144.16 558.473 140.384 558.505 135.776C558.505 133.568 559.433 131.488 561.129 129.888C562.825 128.32 565.097 127.456 567.497 127.456C567.529 127.456 567.529 127.456 567.529 127.456C570.409 127.456 573.129 128.768 574.793 130.912L571.785 132.864C570.793 131.552 569.225 130.816 567.529 130.816H567.497C566.089 130.816 564.777 131.328 563.753 132.256C562.761 133.184 562.185 134.464 562.185 135.808C562.185 138.56 564.553 140.8 567.497 140.8ZM587.07 127.424C587.39 127.488 587.71 127.584 588.03 127.68L587.198 131.264C587.07 131.2 586.974 131.136 586.846 131.072C586.462 130.848 586.014 130.72 585.47 130.688C584.894 130.624 584.414 130.656 583.902 130.784C583.39 130.912 582.878 131.136 582.398 131.552C581.95 131.936 581.566 132.512 581.278 133.12C581.022 133.728 580.862 134.4 580.83 135.104C580.798 135.296 580.766 135.52 580.766 135.712V143.808H577.086V127.808H580.766V129.728C581.182 129.152 581.726 128.608 582.43 128.224C583.326 127.68 584.414 127.392 585.47 127.328C585.982 127.328 586.526 127.36 587.07 127.424ZM597.404 127.456C602.396 127.456 606.428 131.2 606.428 135.808C606.428 140.416 602.396 144.16 597.404 144.16C592.444 144.16 588.412 140.416 588.412 135.808C588.412 131.2 592.444 127.456 597.404 127.456ZM597.404 140.8C600.348 140.8 602.748 138.56 602.748 135.808C602.748 133.056 600.348 130.816 597.404 130.816C594.492 130.816 592.092 133.056 592.092 135.808C592.092 138.56 594.492 140.8 597.404 140.8ZM628.628 127.84H632.628L625.268 143.808H621.748L619.668 138.528L617.588 143.808H614.036L606.708 127.84H610.708L615.828 138.976L617.652 134.944L614.388 127.84H618.388L619.668 131.392L620.948 127.84H624.948L621.652 134.944L623.508 138.976L628.628 127.84ZM632.956 140.032H636.7L633.692 149.44H631.164L632.956 140.032ZM657.334 131.296H652.79V137.824C652.79 139.84 653.11 140.224 653.462 140.416C654.134 140.864 655.958 140.736 657.334 140.576V143.968C656.63 144.032 655.926 144.096 655.222 144.096C653.75 144.096 652.374 143.872 651.318 143.168C649.366 141.888 649.078 139.84 649.078 137.824V131.296H645.494V127.936H649.078V124.32L652.79 122.4V127.936H657.334V131.296ZM669.976 127.424C670.296 127.488 670.616 127.584 670.936 127.68L670.104 131.264C669.976 131.2 669.88 131.136 669.752 131.072C669.368 130.848 668.92 130.72 668.376 130.688C667.8 130.624 667.32 130.656 666.808 130.784C666.296 130.912 665.784 131.136 665.304 131.552C664.856 131.936 664.472 132.512 664.184 133.12C663.928 133.728 663.768 134.4 663.736 135.104C663.704 135.296 663.672 135.52 663.672 135.712V143.808H659.992V127.808H663.672V129.728C664.088 129.152 664.632 128.608 665.336 128.224C666.232 127.68 667.32 127.392 668.376 127.328C668.888 127.328 669.432 127.36 669.976 127.424ZM684.354 127.808H688.034V143.808H684.354V141.888C683.938 142.464 683.362 143.008 682.69 143.392C681.794 143.936 680.674 144.256 679.65 144.288C679.138 144.32 678.594 144.288 678.05 144.192C677.506 144.096 676.962 143.904 676.45 143.68C675.938 143.456 675.458 143.136 675.042 142.816C674.626 142.464 674.274 142.048 673.986 141.632C673.41 140.8 673.058 139.936 672.866 139.04C672.77 138.592 672.706 138.176 672.674 137.728C672.642 137.504 672.642 137.312 672.642 137.088V136.512V127.808H676.322V136.512V137.024C676.322 137.152 676.322 137.312 676.354 137.472C676.386 137.76 676.418 138.048 676.514 138.304C676.642 138.816 676.898 139.328 677.218 139.68C677.506 140.064 677.858 140.352 678.242 140.544C678.658 140.768 679.106 140.896 679.65 140.928C680.194 140.992 680.706 140.992 681.218 140.832C681.73 140.704 682.242 140.48 682.69 140.064C683.17 139.68 683.554 139.104 683.81 138.496C684.098 137.888 684.226 137.248 684.29 136.512C684.322 136.32 684.322 136.128 684.354 135.904V127.808ZM698.502 133.92C700.326 134.464 704.102 135.648 704.23 139.2C704.262 140.48 703.75 141.632 702.758 142.528C701.542 143.616 699.75 144.192 697.766 144.192C697.638 144.192 697.51 144.192 697.35 144.192C694.022 144.064 691.334 142.24 690.534 139.552L694.086 138.656C694.534 140.192 696.166 140.8 697.542 140.832C698.598 140.896 699.622 140.608 700.166 140.128C700.422 139.904 700.55 139.616 700.55 139.296C700.518 138.272 699.366 137.728 697.318 137.088C697.03 137.024 696.774 136.928 696.55 136.864C696.454 136.832 696.326 136.768 696.198 136.736C694.79 136.288 691.046 135.072 691.334 131.776C691.558 128.768 694.63 127.424 697.35 127.424C700.326 127.424 702.566 128.64 703.59 130.88L700.198 132.192C699.91 131.584 699.302 130.784 697.35 130.784C697.318 130.784 695.11 130.816 695.014 132.032C694.95 132.672 696.134 133.152 697.446 133.568C697.606 133.632 697.766 133.664 697.862 133.728C698.054 133.792 698.246 133.856 698.502 133.92ZM717.459 131.296H712.915V137.824C712.915 139.84 713.235 140.224 713.587 140.416C714.259 140.864 716.083 140.736 717.459 140.576V143.968C716.755 144.032 716.051 144.096 715.347 144.096C713.875 144.096 712.499 143.872 711.443 143.168C709.491 141.888 709.203 139.84 709.203 137.824V131.296H705.619V127.936H709.203V124.32L712.915 122.4V127.936H717.459V131.296ZM734.237 125.056C733.949 125.28 733.405 125.696 733.405 127.488V127.808H737.661V131.168H733.405V143.808H729.725V131.168H726.557V127.808H729.725V127.488C729.725 125.216 730.365 123.648 731.805 122.528C733.501 121.184 735.613 121.088 737.661 121.184V124.544C735.965 124.48 734.909 124.544 734.237 125.056ZM747.591 127.456C752.583 127.456 756.615 131.2 756.615 135.808C756.615 140.416 752.583 144.16 747.591 144.16C742.631 144.16 738.599 140.416 738.599 135.808C738.599 131.2 742.631 127.456 747.591 127.456ZM747.591 140.8C750.535 140.8 752.935 138.56 752.935 135.808C752.935 133.056 750.535 130.816 747.591 130.816C744.679 130.816 742.279 133.056 742.279 135.808C742.279 138.56 744.679 140.8 747.591 140.8ZM769.195 127.424C769.515 127.488 769.835 127.584 770.155 127.68L769.323 131.264C769.195 131.2 769.099 131.136 768.971 131.072C768.587 130.848 768.139 130.72 767.595 130.688C767.019 130.624 766.539 130.656 766.027 130.784C765.515 130.912 765.003 131.136 764.523 131.552C764.075 131.936 763.691 132.512 763.403 133.12C763.147 133.728 762.987 134.4 762.955 135.104C762.923 135.296 762.891 135.52 762.891 135.712V143.808H759.211V127.808H762.891V129.728C763.307 129.152 763.851 128.608 764.555 128.224C765.451 127.68 766.539 127.392 767.595 127.328C768.107 127.328 768.651 127.36 769.195 127.424ZM796.725 143.808H793.013V135.264V134.208C793.013 133.92 793.013 133.632 792.949 133.376C792.917 133.088 792.821 132.832 792.757 132.608C792.661 132.352 792.533 132.128 792.405 131.936C792.149 131.552 791.861 131.264 791.509 131.072C791.349 130.976 791.157 130.88 790.965 130.816C790.773 130.752 790.549 130.688 790.293 130.688C789.813 130.624 789.365 130.624 788.885 130.752C788.437 130.88 787.925 131.168 787.509 131.584C787.093 132.032 786.741 132.608 786.549 133.216C786.421 133.536 786.357 133.888 786.325 134.208C786.293 134.496 786.261 134.752 786.229 135.04V135.264L786.261 143.808H782.549L782.581 135.264V134.208C782.549 133.92 782.549 133.632 782.485 133.376C782.453 133.088 782.389 132.832 782.293 132.608C782.197 132.352 782.069 132.128 781.941 131.936C781.685 131.552 781.397 131.264 781.045 131.072C780.885 130.976 780.725 130.88 780.501 130.816C780.309 130.752 780.085 130.688 779.861 130.688C779.349 130.624 778.901 130.624 778.421 130.752C777.973 130.88 777.461 131.168 777.045 131.584C776.629 132.032 776.277 132.608 776.085 133.216C775.957 133.536 775.893 133.888 775.861 134.208C775.829 134.464 775.829 134.688 775.797 134.944V143.808H772.117V127.808H775.797V129.312C776.053 128.96 776.405 128.64 776.789 128.352C777.237 128.064 777.717 127.808 778.261 127.616C778.773 127.456 779.317 127.36 779.861 127.328C780.373 127.328 780.949 127.36 781.493 127.456C782.069 127.584 782.613 127.776 783.093 128.064C784.117 128.608 784.885 129.44 785.333 130.304C785.397 130.432 785.461 130.528 785.525 130.656C785.813 129.824 786.389 128.96 787.253 128.352C787.701 128.032 788.181 127.808 788.725 127.616C789.237 127.456 789.781 127.36 790.325 127.328C790.837 127.328 791.413 127.36 791.957 127.456C792.533 127.584 793.077 127.776 793.557 128.064C794.581 128.608 795.349 129.44 795.797 130.304C796.053 130.72 796.213 131.168 796.341 131.616C796.501 132.064 796.597 132.48 796.629 132.928C796.693 133.376 796.725 133.792 796.725 134.208V135.264V143.808ZM806.97 133.92C808.794 134.464 812.57 135.648 812.698 139.2C812.73 140.48 812.218 141.632 811.226 142.528C810.01 143.616 808.218 144.192 806.234 144.192C806.106 144.192 805.978 144.192 805.818 144.192C802.49 144.064 799.802 142.24 799.002 139.552L802.554 138.656C803.002 140.192 804.634 140.8 806.01 140.832C807.066 140.896 808.09 140.608 808.634 140.128C808.89 139.904 809.018 139.616 809.018 139.296C808.986 138.272 807.834 137.728 805.786 137.088C805.498 137.024 805.242 136.928 805.018 136.864C804.922 136.832 804.794 136.768 804.666 136.736C803.258 136.288 799.514 135.072 799.802 131.776C800.026 128.768 803.098 127.424 805.818 127.424C808.794 127.424 811.034 128.64 812.058 130.88L808.666 132.192C808.378 131.584 807.77 130.784 805.818 130.784C805.786 130.784 803.578 130.816 803.482 132.032C803.418 132.672 804.602 133.152 805.914 133.568C806.074 133.632 806.234 133.664 806.33 133.728C806.522 133.792 806.714 133.856 806.97 133.92ZM833.615 131.296H829.071V137.824C829.071 139.84 829.391 140.224 829.743 140.416C830.415 140.864 832.239 140.736 833.615 140.576V143.968C832.911 144.032 832.207 144.096 831.503 144.096C830.031 144.096 828.655 143.872 827.599 143.168C825.647 141.888 825.359 139.84 825.359 137.824V131.296H821.775V127.936H825.359V124.32L829.071 122.4V127.936H833.615V131.296ZM851.633 143.808H847.921V135.104C847.921 134.432 847.857 133.888 847.697 133.344C847.537 132.8 847.281 132.32 846.993 131.936C846.385 131.168 845.617 130.784 844.529 130.688C843.985 130.624 843.473 130.688 842.993 130.816C842.481 130.976 842.001 131.232 841.585 131.616C841.137 132.032 840.785 132.576 840.497 133.152C840.241 133.76 840.081 134.4 840.017 135.104C839.985 135.296 839.985 135.488 839.953 135.68V143.808H836.273V121.408H839.953V129.408C840.369 128.928 840.881 128.512 841.457 128.16C841.905 127.904 842.417 127.712 842.961 127.552C843.473 127.424 844.017 127.36 844.529 127.328C845.553 127.296 846.737 127.456 847.729 127.936C848.753 128.416 849.617 129.152 850.193 129.952C851.377 131.616 851.633 133.504 851.601 135.104L851.633 143.808ZM871.19 137.184H857.846C858.582 139.264 860.854 140.8 863.542 140.8C865.366 140.8 867.062 140.096 868.15 138.976L871.574 140.416C869.814 142.72 866.838 144.16 863.542 144.16C858.262 144.16 853.942 140.416 853.942 135.808C853.942 131.2 857.974 127.456 862.934 127.456C867.926 127.456 871.958 131.2 871.958 135.808C871.958 136.288 871.926 136.736 871.83 137.184H871.19ZM857.846 134.432H868.054C867.414 132.352 865.366 130.816 862.934 130.816C860.534 130.816 858.486 132.352 857.846 134.432ZM890.497 140.8C892.193 140.8 893.761 140.064 894.753 138.784L897.761 140.768C896.065 142.88 893.345 144.16 890.497 144.16C885.505 144.16 881.473 140.384 881.505 135.776C881.505 133.568 882.433 131.488 884.129 129.888C885.825 128.32 888.097 127.456 890.497 127.456C890.529 127.456 890.529 127.456 890.529 127.456C893.409 127.456 896.129 128.768 897.793 130.912L894.785 132.864C893.793 131.552 892.225 130.816 890.529 130.816H890.497C889.089 130.816 887.777 131.328 886.753 132.256C885.761 133.184 885.185 134.464 885.185 135.808C885.185 138.56 887.553 140.8 890.497 140.8ZM908.06 127.456C913.052 127.456 917.084 131.2 917.084 135.808C917.084 140.416 913.052 144.16 908.06 144.16C903.1 144.16 899.068 140.416 899.068 135.808C899.068 131.2 903.1 127.456 908.06 127.456ZM908.06 140.8C911.004 140.8 913.404 138.56 913.404 135.808C913.404 133.056 911.004 130.816 908.06 130.816C905.148 130.816 902.748 133.056 902.748 135.808C902.748 138.56 905.148 140.8 908.06 140.8ZM929.664 127.424C929.984 127.488 930.304 127.584 930.624 127.68L929.792 131.264C929.664 131.2 929.568 131.136 929.44 131.072C929.056 130.848 928.608 130.72 928.064 130.688C927.488 130.624 927.008 130.656 926.496 130.784C925.984 130.912 925.472 131.136 924.992 131.552C924.544 131.936 924.16 132.512 923.872 133.12C923.616 133.728 923.456 134.4 923.424 135.104C923.392 135.296 923.36 135.52 923.36 135.712V143.808H919.68V127.808H923.36V129.728C923.776 129.152 924.32 128.608 925.024 128.224C925.92 127.68 927.008 127.392 928.064 127.328C928.576 127.328 929.12 127.36 929.664 127.424ZM947.978 143.808H944.298V135.104V134.592C944.298 134.464 944.266 134.304 944.266 134.176C944.234 133.856 944.17 133.6 944.106 133.312C943.946 132.8 943.69 132.288 943.402 131.936C943.114 131.552 942.762 131.264 942.346 131.072C941.962 130.848 941.514 130.72 940.97 130.688C940.394 130.624 939.914 130.656 939.402 130.784C938.89 130.912 938.378 131.168 937.898 131.552C937.45 131.936 937.066 132.512 936.778 133.12C936.522 133.728 936.362 134.4 936.33 135.104C936.298 135.296 936.266 135.52 936.266 135.712V143.808H932.586V127.808H936.266V129.728C936.682 129.152 937.226 128.608 937.898 128.224C938.826 127.68 939.914 127.392 940.97 127.328C941.482 127.328 942.026 127.36 942.57 127.424C943.114 127.52 943.658 127.712 944.17 127.936C944.682 128.16 945.13 128.48 945.546 128.832C945.962 129.184 946.314 129.568 946.602 129.984C947.21 130.816 947.53 131.68 947.754 132.576C947.85 133.024 947.914 133.472 947.946 133.888C947.946 134.112 947.978 134.304 947.978 134.528V135.104V143.808ZM967.534 137.184H954.19C954.926 139.264 957.198 140.8 959.886 140.8C961.71 140.8 963.406 140.096 964.494 138.976L967.918 140.416C966.158 142.72 963.182 144.16 959.886 144.16C954.606 144.16 950.286 140.416 950.286 135.808C950.286 131.2 954.318 127.456 959.278 127.456C964.27 127.456 968.302 131.2 968.302 135.808C968.302 136.288 968.27 136.736 968.174 137.184H967.534ZM954.19 134.432H964.398C963.758 132.352 961.71 130.816 959.278 130.816C956.878 130.816 954.83 132.352 954.19 134.432ZM980.914 127.424C981.234 127.488 981.554 127.584 981.874 127.68L981.042 131.264C980.914 131.2 980.818 131.136 980.69 131.072C980.306 130.848 979.858 130.72 979.314 130.688C978.738 130.624 978.258 130.656 977.746 130.784C977.234 130.912 976.722 131.136 976.242 131.552C975.794 131.936 975.41 132.512 975.122 133.12C974.866 133.728 974.706 134.4 974.674 135.104C974.642 135.296 974.61 135.52 974.61 135.712V143.808H970.93V127.808H974.61V129.728C975.026 129.152 975.57 128.608 976.274 128.224C977.17 127.68 978.258 127.392 979.314 127.328C979.826 127.328 980.37 127.36 980.914 127.424ZM990.627 133.92C992.451 134.464 996.227 135.648 996.355 139.2C996.387 140.48 995.875 141.632 994.883 142.528C993.667 143.616 991.875 144.192 989.891 144.192C989.763 144.192 989.635 144.192 989.475 144.192C986.147 144.064 983.459 142.24 982.659 139.552L986.211 138.656C986.659 140.192 988.291 140.8 989.667 140.832C990.723 140.896 991.747 140.608 992.291 140.128C992.547 139.904 992.675 139.616 992.675 139.296C992.643 138.272 991.491 137.728 989.443 137.088C989.155 137.024 988.899 136.928 988.675 136.864C988.579 136.832 988.451 136.768 988.323 136.736C986.915 136.288 983.171 135.072 983.459 131.776C983.683 128.768 986.755 127.424 989.475 127.424C992.451 127.424 994.691 128.64 995.715 130.88L992.323 132.192C992.035 131.584 991.427 130.784 989.475 130.784C989.443 130.784 987.235 130.816 987.139 132.032C987.075 132.672 988.259 133.152 989.571 133.568C989.731 133.632 989.891 133.664 989.987 133.728C990.179 133.792 990.371 133.856 990.627 133.92ZM1009.58 131.296H1005.04V137.824C1005.04 139.84 1005.36 140.224 1005.71 140.416C1006.38 140.864 1008.21 140.736 1009.58 140.576V143.968C1008.88 144.032 1008.18 144.096 1007.47 144.096C1006 144.096 1004.62 143.872 1003.57 143.168C1001.62 141.888 1001.33 139.84 1001.33 137.824V131.296H997.744V127.936H1001.33V124.32L1005.04 122.4V127.936H1009.58V131.296ZM1020.06 127.456C1025.05 127.456 1029.08 131.2 1029.08 135.808C1029.08 140.416 1025.05 144.16 1020.06 144.16C1015.1 144.16 1011.07 140.416 1011.07 135.808C1011.07 131.2 1015.1 127.456 1020.06 127.456ZM1020.06 140.8C1023 140.8 1025.4 138.56 1025.4 135.808C1025.4 133.056 1023 130.816 1020.06 130.816C1017.15 130.816 1014.75 133.056 1014.75 135.808C1014.75 138.56 1017.15 140.8 1020.06 140.8ZM1047.07 143.808H1043.39V135.104V134.592C1043.39 134.464 1043.36 134.304 1043.36 134.176C1043.33 133.856 1043.26 133.6 1043.2 133.312C1043.04 132.8 1042.78 132.288 1042.5 131.936C1042.21 131.552 1041.86 131.264 1041.44 131.072C1041.06 130.848 1040.61 130.72 1040.06 130.688C1039.49 130.624 1039.01 130.656 1038.5 130.784C1037.98 130.912 1037.47 131.168 1036.99 131.552C1036.54 131.936 1036.16 132.512 1035.87 133.12C1035.62 133.728 1035.46 134.4 1035.42 135.104C1035.39 135.296 1035.36 135.52 1035.36 135.712V143.808H1031.68V127.808H1035.36V129.728C1035.78 129.152 1036.32 128.608 1036.99 128.224C1037.92 127.68 1039.01 127.392 1040.06 127.328C1040.58 127.328 1041.12 127.36 1041.66 127.424C1042.21 127.52 1042.75 127.712 1043.26 127.936C1043.78 128.16 1044.22 128.48 1044.64 128.832C1045.06 129.184 1045.41 129.568 1045.7 129.984C1046.3 130.816 1046.62 131.68 1046.85 132.576C1046.94 133.024 1047.01 133.472 1047.04 133.888C1047.04 134.112 1047.07 134.304 1047.07 134.528V135.104V143.808ZM1066.63 137.184H1053.28C1054.02 139.264 1056.29 140.8 1058.98 140.8C1060.8 140.8 1062.5 140.096 1063.59 138.976L1067.01 140.416C1065.25 142.72 1062.28 144.16 1058.98 144.16C1053.7 144.16 1049.38 140.416 1049.38 135.808C1049.38 131.2 1053.41 127.456 1058.37 127.456C1063.36 127.456 1067.4 131.2 1067.4 135.808C1067.4 136.288 1067.36 136.736 1067.27 137.184H1066.63ZM1053.28 134.432H1063.49C1062.85 132.352 1060.8 130.816 1058.37 130.816C1055.97 130.816 1053.92 132.352 1053.28 134.432ZM593.544 181.456C598.536 181.456 602.568 185.2 602.568 189.808C602.568 194.416 598.536 198.16 593.544 198.16C588.584 198.16 584.552 194.416 584.552 189.808C584.552 185.2 588.584 181.456 593.544 181.456ZM593.544 194.8C596.488 194.8 598.888 192.56 598.888 189.808C598.888 187.056 596.488 184.816 593.544 184.816C590.632 184.816 588.232 187.056 588.232 189.808C588.232 192.56 590.632 194.8 593.544 194.8ZM611.346 179.056C611.058 179.28 610.514 179.696 610.514 181.488V181.808H614.77V185.168H610.514V197.808H606.834V185.168H603.666V181.808H606.834V181.488C606.834 179.216 607.474 177.648 608.914 176.528C610.61 175.184 612.722 175.088 614.77 175.184V178.544C613.074 178.48 612.018 178.544 611.346 179.056ZM632.794 181.456C637.786 181.456 641.818 185.2 641.818 189.808C641.818 194.416 637.786 198.16 632.794 198.16C627.834 198.16 623.802 194.416 623.802 189.808C623.802 185.2 627.834 181.456 632.794 181.456ZM632.794 194.8C635.738 194.8 638.138 192.56 638.138 189.808C638.138 187.056 635.738 184.816 632.794 184.816C629.882 184.816 627.482 187.056 627.482 189.808C627.482 192.56 629.882 194.8 632.794 194.8ZM655.87 181.808H659.55V197.808H655.87V195.888C655.454 196.464 654.878 197.008 654.206 197.392C653.31 197.936 652.19 198.256 651.166 198.288C650.654 198.32 650.11 198.288 649.566 198.192C649.022 198.096 648.478 197.904 647.966 197.68C647.454 197.456 646.974 197.136 646.558 196.816C646.142 196.464 645.79 196.048 645.502 195.632C644.926 194.8 644.574 193.936 644.382 193.04C644.286 192.592 644.222 192.176 644.19 191.728C644.158 191.504 644.158 191.312 644.158 191.088V190.512V181.808H647.838V190.512V191.024C647.838 191.152 647.838 191.312 647.87 191.472C647.902 191.76 647.934 192.048 648.03 192.304C648.158 192.816 648.414 193.328 648.734 193.68C649.022 194.064 649.374 194.352 649.758 194.544C650.174 194.768 650.622 194.896 651.166 194.928C651.71 194.992 652.222 194.992 652.734 194.832C653.246 194.704 653.758 194.48 654.206 194.064C654.686 193.68 655.07 193.104 655.326 192.496C655.614 191.888 655.742 191.248 655.806 190.512C655.838 190.32 655.838 190.128 655.87 189.904V181.808ZM672.929 181.424C673.249 181.488 673.569 181.584 673.889 181.68L673.057 185.264C672.929 185.2 672.833 185.136 672.705 185.072C672.321 184.848 671.873 184.72 671.329 184.688C670.753 184.624 670.273 184.656 669.761 184.784C669.249 184.912 668.737 185.136 668.257 185.552C667.809 185.936 667.425 186.512 667.137 187.12C666.881 187.728 666.721 188.4 666.689 189.104C666.657 189.296 666.625 189.52 666.625 189.712V197.808H662.945V181.808H666.625V183.728C667.041 183.152 667.585 182.608 668.289 182.224C669.185 181.68 670.273 181.392 671.329 181.328C671.841 181.328 672.385 181.36 672.929 181.424ZM691.763 181.456C696.755 181.456 700.787 185.2 700.787 189.808C700.787 194.416 696.755 198.16 691.763 198.16C686.803 198.16 682.771 194.416 682.771 189.808C682.771 185.2 686.803 181.456 691.763 181.456ZM691.763 194.8C694.707 194.8 697.107 192.56 697.107 189.808C697.107 187.056 694.707 184.816 691.763 184.816C688.851 184.816 686.451 187.056 686.451 189.808C686.451 192.56 688.851 194.8 691.763 194.8ZM719.543 183.92C721.175 185.488 722.103 187.664 722.071 189.808C722.103 191.952 721.175 194.128 719.543 195.696C718.711 196.496 717.719 197.136 716.599 197.552C715.479 197.968 714.263 198.192 713.079 198.16C711.863 198.128 710.679 197.872 709.623 197.392C708.663 196.944 707.799 196.336 707.095 195.6V204.208H703.415V181.808H707.095V184.016C707.799 183.312 708.663 182.672 709.623 182.224C710.679 181.744 711.863 181.488 713.079 181.456C714.263 181.456 715.479 181.648 716.599 182.064C717.719 182.512 718.711 183.152 719.543 183.92ZM716.823 193.296C717.815 192.4 718.391 191.12 718.391 189.808C718.391 188.496 717.815 187.216 716.823 186.32C715.831 185.392 714.487 184.88 713.079 184.816C712.375 184.784 711.671 184.88 710.967 185.072C710.295 185.264 709.623 185.616 709.015 186.064C707.863 186.928 707.095 188.336 707.095 189.808C707.095 191.28 707.863 192.688 709.047 193.584C709.623 194.032 710.295 194.352 710.967 194.544C711.671 194.736 712.375 194.832 713.079 194.8C714.487 194.736 715.831 194.224 716.823 193.296ZM741.112 191.184H727.768C728.504 193.264 730.776 194.8 733.464 194.8C735.288 194.8 736.984 194.096 738.072 192.976L741.496 194.416C739.736 196.72 736.76 198.16 733.464 198.16C728.184 198.16 723.864 194.416 723.864 189.808C723.864 185.2 727.896 181.456 732.856 181.456C737.848 181.456 741.88 185.2 741.88 189.808C741.88 190.288 741.848 190.736 741.752 191.184H741.112ZM727.768 188.432H737.976C737.336 186.352 735.288 184.816 732.856 184.816C730.456 184.816 728.408 186.352 727.768 188.432ZM754.492 181.424C754.812 181.488 755.132 181.584 755.452 181.68L754.62 185.264C754.492 185.2 754.396 185.136 754.268 185.072C753.884 184.848 753.436 184.72 752.892 184.688C752.316 184.624 751.836 184.656 751.324 184.784C750.812 184.912 750.3 185.136 749.82 185.552C749.372 185.936 748.988 186.512 748.7 187.12C748.444 187.728 748.284 188.4 748.252 189.104C748.22 189.296 748.188 189.52 748.188 189.712V197.808H744.508V181.808H748.188V183.728C748.604 183.152 749.148 182.608 749.852 182.224C750.748 181.68 751.836 181.392 752.892 181.328C753.404 181.328 753.948 181.36 754.492 181.424ZM770.841 181.808H774.521V197.808H770.841V195.6C770.137 196.336 769.273 196.944 768.313 197.392C767.257 197.872 766.073 198.128 764.857 198.16C763.673 198.192 762.457 197.968 761.337 197.552C760.217 197.136 759.225 196.496 758.393 195.696C756.761 194.128 755.833 191.952 755.865 189.808C755.833 187.664 756.761 185.488 758.393 183.92C759.225 183.152 760.217 182.512 761.337 182.064C762.457 181.648 763.673 181.456 764.857 181.456C766.073 181.488 767.257 181.744 768.313 182.224C769.273 182.672 770.137 183.312 770.841 184.016V181.808ZM768.889 193.584C770.073 192.688 770.841 191.28 770.841 189.808C770.841 188.336 770.073 186.928 768.889 186.064C768.313 185.616 767.641 185.264 766.969 185.072C766.265 184.88 765.561 184.784 764.857 184.816C763.449 184.88 762.105 185.392 761.113 186.32C760.121 187.216 759.545 188.496 759.545 189.808C759.545 191.12 760.121 192.4 761.113 193.296C762.105 194.224 763.449 194.736 764.857 194.8C765.561 194.832 766.265 194.736 766.969 194.544C767.641 194.352 768.313 194.032 768.889 193.584ZM788.506 185.296H783.962V191.824C783.962 193.84 784.282 194.224 784.634 194.416C785.306 194.864 787.13 194.736 788.506 194.576V197.968C787.802 198.032 787.098 198.096 786.394 198.096C784.922 198.096 783.546 197.872 782.49 197.168C780.538 195.888 780.25 193.84 780.25 191.824V185.296H776.666V181.936H780.25V178.32L783.962 176.4V181.936H788.506V185.296ZM794.844 197.808H791.132V181.808H794.844V197.808ZM792.988 180.112C791.676 180.112 790.652 179.056 790.652 177.776C790.652 176.464 791.676 175.408 792.988 175.408C794.3 175.408 795.324 176.464 795.324 177.776C795.324 179.056 794.3 180.112 792.988 180.112ZM806.201 181.456C811.193 181.456 815.225 185.2 815.225 189.808C815.225 194.416 811.193 198.16 806.201 198.16C801.241 198.16 797.209 194.416 797.209 189.808C797.209 185.2 801.241 181.456 806.201 181.456ZM806.201 194.8C809.145 194.8 811.545 192.56 811.545 189.808C811.545 187.056 809.145 184.816 806.201 184.816C803.289 184.816 800.889 187.056 800.889 189.808C800.889 192.56 803.289 194.8 806.201 194.8ZM833.212 197.808H829.532V189.104V188.592C829.532 188.464 829.5 188.304 829.5 188.176C829.468 187.856 829.404 187.6 829.34 187.312C829.18 186.8 828.924 186.288 828.636 185.936C828.348 185.552 827.996 185.264 827.58 185.072C827.196 184.848 826.748 184.72 826.204 184.688C825.628 184.624 825.148 184.656 824.636 184.784C824.124 184.912 823.612 185.168 823.132 185.552C822.684 185.936 822.3 186.512 822.012 187.12C821.756 187.728 821.596 188.4 821.564 189.104C821.532 189.296 821.5 189.52 821.5 189.712V197.808H817.82V181.808H821.5V183.728C821.916 183.152 822.46 182.608 823.132 182.224C824.06 181.68 825.148 181.392 826.204 181.328C826.716 181.328 827.26 181.36 827.804 181.424C828.348 181.52 828.892 181.712 829.404 181.936C829.916 182.16 830.364 182.48 830.78 182.832C831.196 183.184 831.548 183.568 831.836 183.984C832.444 184.816 832.764 185.68 832.988 186.576C833.084 187.024 833.148 187.472 833.18 187.888C833.18 188.112 833.212 188.304 833.212 188.528V189.104V197.808ZM843.392 187.92C845.216 188.464 848.992 189.648 849.12 193.2C849.152 194.48 848.64 195.632 847.648 196.528C846.432 197.616 844.64 198.192 842.656 198.192C842.528 198.192 842.4 198.192 842.24 198.192C838.912 198.064 836.224 196.24 835.424 193.552L838.976 192.656C839.424 194.192 841.056 194.8 842.432 194.832C843.488 194.896 844.512 194.608 845.056 194.128C845.312 193.904 845.44 193.616 845.44 193.296C845.408 192.272 844.256 191.728 842.208 191.088C841.92 191.024 841.664 190.928 841.44 190.864C841.344 190.832 841.216 190.768 841.088 190.736C839.68 190.288 835.936 189.072 836.224 185.776C836.448 182.768 839.52 181.424 842.24 181.424C845.216 181.424 847.456 182.64 848.48 184.88L845.088 186.192C844.8 185.584 844.192 184.784 842.24 184.784C842.208 184.784 840 184.816 839.904 186.032C839.84 186.672 841.024 187.152 842.336 187.568C842.496 187.632 842.656 187.664 842.752 187.728C842.944 187.792 843.136 187.856 843.392 187.92ZM853.198 198.224C851.886 198.224 850.862 197.168 850.862 195.856C850.862 194.544 851.886 193.52 853.198 193.52C854.51 193.52 855.534 194.544 855.534 195.856C855.534 197.168 854.51 198.224 853.198 198.224Z" fill="url(#paint1_linear_1425_49709)"/>
<defs>
<linearGradient id="paint0_linear_1425_49709" x1="1440" y1="-0.000176622" x2="1457.95" y2="176.209" gradientUnits="userSpaceOnUse">
<stop stop-color="#B2F35E"/>
<stop offset="1" stop-color="#85F35E"/>
</linearGradient>
<linearGradient id="paint1_linear_1425_49709" x1="720" y1="106" x2="720" y2="214" gradientUnits="userSpaceOnUse">
<stop/>
<stop offset="1" stop-opacity="0.6"/>
</linearGradient>
</defs>
</svg>
