<svg width="712" height="464" viewBox="0 0 712 464" fill="none" xmlns="http://www.w3.org/2000/svg">
<g clip-path="url(#clip0_1425_48052)">
<rect width="712" height="464" fill="url(#paint0_linear_1425_48052)"/>
<path d="M115.12 188.04H122.64L133.72 216H127.64L125.12 209.64H112.64L110.12 216H104.08L115.12 188.04ZM114.6 204.68H123.16L118.88 193.36L114.6 204.68ZM156.444 198.44C158.484 200.44 159.604 203.12 159.604 205.76C159.604 208.44 158.484 211.12 156.444 213.12C155.444 214.08 154.164 214.88 152.804 215.4C151.404 215.96 149.884 216.2 148.404 216.16C146.924 216.12 145.444 215.72 144.164 215.12C143.084 214.6 142.164 213.88 141.364 213.08V215.8H135.964V187.8H141.364V198.48C142.164 197.68 143.084 196.96 144.164 196.44C145.444 195.84 146.924 195.48 148.404 195.4C149.884 195.36 151.404 195.6 152.804 196.16C154.164 196.68 155.444 197.48 156.444 198.44ZM153.724 207.84C154.004 207.2 154.164 206.48 154.164 205.76C154.164 205.04 154.004 204.36 153.724 203.72C153.404 203.08 152.964 202.48 152.404 202C151.324 201 149.924 200.44 148.404 200.32C147.644 200.28 146.844 200.36 146.084 200.52C145.284 200.68 144.524 201 143.804 201.48C143.084 201.96 142.444 202.6 142.044 203.32C141.604 204.08 141.364 204.92 141.364 205.76C141.364 206.64 141.604 207.48 142.044 208.24C142.484 208.96 143.084 209.6 143.804 210.08C144.524 210.52 145.284 210.84 146.084 211.04C146.844 211.2 147.644 211.24 148.404 211.2C149.924 211.12 151.324 210.52 152.404 209.56C152.964 209.08 153.404 208.48 153.724 207.84ZM173.078 195.4C179.238 195.4 184.278 200.08 184.278 205.76C184.278 211.48 179.238 216.16 173.078 216.16C166.878 216.16 161.878 211.48 161.878 205.76C161.878 200.08 166.878 195.4 173.078 195.4ZM173.078 211.2C176.238 211.2 178.838 208.76 178.838 205.76C178.838 202.8 176.238 200.36 173.078 200.36C169.878 200.36 167.278 202.8 167.278 205.76C167.278 208.76 169.878 211.2 173.078 211.2ZM202.525 195.8H207.965V215.76H202.525V213.24C202.525 213.24 201.045 215.6 197.565 216.08C197.285 216.12 197.005 216.12 196.725 216.12C195.405 216.2 193.965 216 192.645 215.44C191.365 214.88 190.205 214 189.365 213C188.565 212 188.005 210.88 187.685 209.8C187.325 208.72 187.165 207.6 187.125 206.56V195.8H192.525V201.12V205.12V205.8C192.525 205.96 192.525 206.16 192.565 206.32C192.565 207.04 192.725 207.72 192.965 208.32C193.205 208.96 193.525 209.48 193.885 209.88C194.245 210.28 194.645 210.56 195.085 210.8C195.565 211 196.085 211.16 196.725 211.24C197.045 211.24 197.405 211.24 197.685 211.24C197.725 211.24 197.725 211.24 197.725 211.24C197.765 211.24 197.845 211.24 197.885 211.24C197.965 211.2 198.045 211.2 198.085 211.2C200.965 210.88 202.525 208.8 202.525 206.4V195.8ZM225.453 200.24H220.173V208.04C220.173 210.28 220.333 210.6 220.853 211C221.533 211.56 223.773 211.4 225.453 211.12V216.08C224.573 216.2 223.693 216.24 222.813 216.24C220.893 216.24 219.133 215.96 217.693 215.04C215.093 213.36 214.733 210.68 214.733 208.04V200.24H210.653V195.8H214.733V191.64L220.173 188.8V195.8H225.453V200.24ZM112.04 276.04H106.36V248.04H112.04V276.04ZM131.91 270.44V266.44V265.76C131.91 265.56 131.91 265.4 131.91 265.24C131.87 264.52 131.71 263.84 131.51 263.24C131.27 262.6 130.95 262.08 130.59 261.68C130.19 261.28 129.83 261 129.35 260.76C128.91 260.56 128.39 260.4 127.75 260.32C127.39 260.32 127.07 260.28 126.75 260.32C126.75 260.32 126.75 260.32 126.71 260.32C126.67 260.32 126.63 260.32 126.59 260.32C126.51 260.36 126.43 260.36 126.35 260.36C123.51 260.68 121.91 262.76 121.91 265.16V275.76H116.51V255.8H121.91V258.32C121.91 258.32 123.39 255.96 126.91 255.48C127.19 255.44 127.47 255.44 127.75 255.44C129.03 255.36 130.51 255.56 131.79 256.12C133.11 256.68 134.27 257.56 135.07 258.56C135.91 259.56 136.43 260.68 136.79 261.76C137.11 262.84 137.27 263.96 137.31 265L137.35 275.76H131.91V270.44ZM149.405 253C149.125 253.2 148.525 253.64 148.525 255.6V255.8H153.605V260.24H148.525V275.76H143.125V260.24H139.405V255.8H143.125V255.6C143.125 252.68 144.005 250.64 145.965 249.16C148.205 247.48 150.965 247.36 153.605 247.44V252.4C151.565 252.32 150.205 252.4 149.405 253ZM161.636 275.76H156.196V255.8H161.636V275.76ZM158.916 253.84C157.196 253.84 155.796 252.4 155.796 250.68C155.796 248.92 157.196 247.52 158.916 247.52C160.676 247.52 162.076 248.92 162.076 250.68C162.076 252.4 160.676 253.84 158.916 253.84ZM181.246 270.44V266.44V265.76C181.246 265.56 181.246 265.4 181.246 265.24C181.206 264.52 181.046 263.84 180.846 263.24C180.606 262.6 180.286 262.08 179.926 261.68C179.526 261.28 179.166 261 178.686 260.76C178.246 260.56 177.726 260.4 177.086 260.32C176.726 260.32 176.406 260.28 176.086 260.32C176.086 260.32 176.086 260.32 176.046 260.32C176.006 260.32 175.966 260.32 175.926 260.32C175.846 260.36 175.766 260.36 175.686 260.36C172.846 260.68 171.246 262.76 171.246 265.16V275.76H165.846V255.8H171.246V258.32C171.246 258.32 172.726 255.96 176.246 255.48C176.526 255.44 176.806 255.44 177.086 255.44C178.366 255.36 179.846 255.56 181.126 256.12C182.446 256.68 183.606 257.56 184.406 258.56C185.246 259.56 185.766 260.68 186.126 261.76C186.446 262.84 186.606 263.96 186.646 265L186.686 275.76H181.246V270.44ZM195.699 275.76H190.259V255.8H195.699V275.76ZM192.979 253.84C191.259 253.84 189.859 252.4 189.859 250.68C189.859 248.92 191.259 247.52 192.979 247.52C194.739 247.52 196.139 248.92 196.139 250.68C196.139 252.4 194.739 253.84 192.979 253.84ZM213.148 260.24H207.868V268.04C207.868 270.28 208.028 270.6 208.548 271C209.228 271.56 211.468 271.4 213.148 271.12V276.08C212.268 276.2 211.388 276.24 210.508 276.24C208.588 276.24 206.828 275.96 205.388 275.04C202.788 273.36 202.428 270.68 202.428 268.04V260.24H198.348V255.8H202.428V251.64L207.868 248.8V255.8H213.148V260.24ZM237.358 267.76H236.078H221.038C221.958 269.76 224.318 271.2 227.078 271.2C228.958 271.2 230.678 270.56 231.878 269.44L237.038 271.48C234.878 274.36 231.158 276.16 227.078 276.16C220.478 276.16 215.158 271.48 215.158 265.76C215.158 260.08 220.158 255.4 226.358 255.4C232.518 255.4 237.558 260.08 237.558 265.76C237.558 266.44 237.478 267.12 237.358 267.76ZM220.958 263.8H231.718C230.878 261.8 228.798 260.36 226.358 260.36C223.918 260.36 221.798 261.8 220.958 263.8ZM270.094 253.2H256.414V259.28H269.014V264.48H256.414V270.84H270.094V276H250.734V248.04H270.094V253.2ZM283.054 263.12C285.414 263.8 290.334 265.24 290.454 269.8C290.534 271.4 289.854 272.88 288.574 274C287.014 275.4 284.654 276.2 282.054 276.2C281.894 276.2 281.694 276.2 281.534 276.2C277.254 276 273.774 273.76 272.694 270.4L277.774 269.04C278.014 270.08 279.214 271.4 281.334 271.68C283.454 271.92 285.214 271.28 285.294 270.32C285.414 269.36 284.894 268.84 282.374 268C282.294 268 282.214 267.96 282.134 267.96C282.134 267.92 282.094 267.92 282.054 267.92C281.854 267.84 281.654 267.8 281.414 267.72C281.054 267.6 280.734 267.52 280.454 267.44C280.334 267.4 280.174 267.32 280.014 267.28C278.174 266.72 273.294 265.2 273.654 260.92C274.014 257.12 277.974 255.36 281.494 255.36C285.374 255.36 288.294 256.92 289.654 259.72L284.774 261.68C284.414 260.6 283.414 259.68 281.294 259.68C279.374 259.68 276.894 260.96 280.294 262.2C280.694 262.36 281.134 262.52 281.734 262.72C281.934 262.76 282.134 262.84 282.294 262.88C282.494 262.96 282.774 263.04 283.054 263.12ZM303.976 271.2C305.776 271.2 307.456 270.4 308.576 269.04L312.976 271.92C310.856 274.56 307.496 276.16 303.976 276.16C303.936 276.16 303.936 276.16 303.936 276.16C300.936 276.16 298.096 275.04 296.016 273.08C293.896 271.12 292.736 268.52 292.776 265.76C292.776 260.04 297.816 255.4 303.976 255.4C307.576 255.4 310.936 257.04 313.056 259.72L308.616 262.56C307.496 261.16 305.816 260.36 303.976 260.36C300.776 260.36 298.176 262.76 298.176 265.76C298.176 267.24 298.776 268.6 299.896 269.64C300.976 270.64 302.416 271.2 303.936 271.2H303.976ZM331.243 256.12C331.403 256.2 331.523 256.24 331.683 256.32L330.323 262.04C330.243 261.92 330.123 261.8 330.043 261.68C329.643 261.28 329.283 261 328.803 260.76C328.363 260.56 327.843 260.4 327.203 260.32C326.843 260.32 326.523 260.28 326.203 260.32C326.203 260.32 326.203 260.32 326.163 260.32C326.123 260.32 326.083 260.32 326.043 260.32C325.963 260.36 325.883 260.36 325.803 260.36C322.963 260.68 321.363 262.76 321.363 265.16V275.76H315.963V255.8H321.363V258.32C321.363 258.32 322.843 255.96 326.363 255.48C326.643 255.44 326.923 255.44 327.203 255.44C328.523 255.36 329.963 255.56 331.243 256.12ZM343.976 255.4C350.136 255.4 355.176 260.08 355.176 265.76C355.176 271.48 350.136 276.16 343.976 276.16C337.776 276.16 332.776 271.48 332.776 265.76C332.776 260.08 337.776 255.4 343.976 255.4ZM343.976 271.2C347.136 271.2 349.736 268.76 349.736 265.76C349.736 262.8 347.136 260.36 343.976 260.36C340.776 260.36 338.176 262.8 338.176 265.76C338.176 268.76 340.776 271.2 343.976 271.2ZM385.175 255.8H391.055L380.415 275.76H375.935L373.135 269.32L370.375 275.76H365.895L355.255 255.8H361.095L367.895 269.12L370.215 264.52L365.775 255.8H371.615L373.135 259.76L374.655 255.8H380.535L376.095 264.52L378.415 269.12L385.175 255.8Z" fill="url(#paint1_linear_1425_48052)"/>
<path opacity="0.1" fill-rule="evenodd" clip-rule="evenodd" d="M466.918 503.936C421.928 791.921 151.998 988.908 -135.987 943.918C-423.973 898.928 -620.959 628.998 -575.969 341.013C-530.979 53.0276 -261.049 -143.959 26.9358 -98.969C314.921 -53.979 511.908 215.951 466.918 503.936ZM470.87 504.553C425.539 794.721 153.563 993.201 -136.605 947.87C-426.773 902.539 -625.252 630.563 -579.921 340.395C-534.59 50.2276 -262.615 -148.252 27.5532 -102.921C317.721 -57.5901 516.201 214.385 470.87 504.553ZM-119.543 720.17C99.8671 754.447 305.521 604.367 339.798 384.958C374.074 165.548 223.995 -40.1057 4.58492 -74.3826C-214.825 -108.659 -420.478 41.4204 -454.755 260.83C-489.032 480.24 -338.952 685.893 -119.543 720.17ZM-120.16 724.122C101.432 758.74 309.132 607.167 343.75 385.575C378.368 163.983 226.795 -43.7168 5.20233 -78.3346C-216.39 -112.953 -424.089 38.6203 -458.707 260.213C-493.325 481.805 -341.752 689.504 -120.16 724.122ZM-99.8525 528.877C59.9723 553.845 209.777 444.523 234.745 284.698C259.713 124.873 150.391 -24.9314 -9.43417 -49.8998C-169.259 -74.8681 -319.063 34.4547 -344.032 194.279C-369 354.104 -259.677 503.909 -99.8525 528.877ZM-100.47 532.829C61.5375 558.138 213.388 447.323 238.697 285.315C264.006 123.308 153.191 -28.5425 -8.81677 -53.8518C-170.824 -79.1612 -322.675 31.6546 -347.984 193.662C-373.293 355.67 -262.477 507.52 -100.47 532.829Z" fill="url(#paint2_linear_1425_48052)"/>
</g>
<defs>
<linearGradient id="paint0_linear_1425_48052" x1="712" y1="-0.000256102" x2="782.788" y2="237.012" gradientUnits="userSpaceOnUse">
<stop stop-color="#B2F35E"/>
<stop offset="1" stop-color="#85F35E"/>
</linearGradient>
<linearGradient id="paint1_linear_1425_48052" x1="248" y1="172" x2="248" y2="292" gradientUnits="userSpaceOnUse">
<stop/>
<stop offset="1" stop-opacity="0.6"/>
</linearGradient>
<linearGradient id="paint2_linear_1425_48052" x1="-88.3742" y1="-108.537" x2="-310.056" y2="105.299" gradientUnits="userSpaceOnUse">
<stop/>
<stop offset="1" stop-opacity="0.1"/>
</linearGradient>
<clipPath id="clip0_1425_48052">
<rect width="712" height="464" fill="white"/>
</clipPath>
</defs>
</svg>
