<svg width="48" height="48" viewBox="0 0 48 48" fill="none" xmlns="http://www.w3.org/2000/svg">
<rect width="48" height="48" fill="#B2F35E"/>
<path d="M24 34C18.477 34 14 29.523 14 24C14 18.477 18.477 14 24 14C29.523 14 34 18.477 34 24C34 29.523 29.523 34 24 34ZM24 32C26.1217 32 28.1566 31.1571 29.6569 29.6569C31.1571 28.1566 32 26.1217 32 24C32 21.8783 31.1571 19.8434 29.6569 18.3431C28.1566 16.8429 26.1217 16 24 16C21.8783 16 19.8434 16.8429 18.3431 18.3431C16.8429 19.8434 16 21.8783 16 24C16 26.1217 16.8429 28.1566 18.3431 29.6569C19.8434 31.1571 21.8783 32 24 32ZM23 28H20V20H23V18H25V20H26C26.4643 20 26.9194 20.1293 27.3143 20.3734C27.7093 20.6175 28.0284 20.9667 28.2361 21.382C28.4437 21.7972 28.5316 22.2621 28.4899 22.7245C28.4482 23.1869 28.2786 23.6286 28 24C28.2786 24.3714 28.4482 24.8131 28.4899 25.2755C28.5316 25.7379 28.4437 26.2028 28.2361 26.618C28.0284 27.0333 27.7093 27.3825 27.3143 27.6266C26.9194 27.8707 26.4643 28 26 28H25V30H23V28ZM22 25V26H26C26.1326 26 26.2598 25.9473 26.3536 25.8536C26.4473 25.7598 26.5 25.6326 26.5 25.5C26.5 25.3674 26.4473 25.2402 26.3536 25.1464C26.2598 25.0527 26.1326 25 26 25H22ZM22 22V23H26C26.1326 23 26.2598 22.9473 26.3536 22.8536C26.4473 22.7598 26.5 22.6326 26.5 22.5C26.5 22.3674 26.4473 22.2402 26.3536 22.1464C26.2598 22.0527 26.1326 22 26 22H22Z" fill="url(#paint0_linear_1951_26381)"/>
<defs>
<linearGradient id="paint0_linear_1951_26381" x1="24" y1="14" x2="24" y2="34" gradientUnits="userSpaceOnUse">
<stop/>
<stop offset="1" stop-opacity="0.6"/>
</linearGradient>
</defs>
</svg>
