<svg width="145" height="12" viewBox="0 0 145 12" fill="none" xmlns="http://www.w3.org/2000/svg">
<path d="M2.85337 0.134766V11.8487H0V0.134766H2.85337Z" fill="white"/>
<path d="M15.4345 11.8487H12.5811L7.80992 4.62352V11.8487H4.95654V0.134766H7.80992L12.5811 7.39234V0.134766H15.4345V11.8487Z" fill="white"/>
<path d="M20.389 2.84766V4.88963H23.9602V7.10973H20.389V11.8486H17.5356V2.84766" fill="white"/>
<path d="M25.1602 0.134766H17.5356V2.42142H25.1602V0.134766Z" fill="#B2F35E"/>
<path d="M57.6145 0.134766H48.5542V2.42142H57.6145V0.134766Z" fill="#B2F35E"/>
<path d="M29.5501 0.134766V11.8487H26.6968V0.134766H29.5501Z" fill="white"/>
<path d="M42.1313 11.8487H39.2779L34.5067 4.62352V11.8487H31.6533V0.134766H34.5067L39.2779 7.39234V0.134766H42.1313V11.8487Z" fill="white"/>
<path d="M47.0863 0.134766V11.8487H44.2329V0.134766H47.0863Z" fill="white"/>
<path d="M54.5111 2.84766V11.8486H51.6577V2.84766" fill="white"/>
<path d="M61.9359 2.42142V4.79084H65.7572V6.99294H61.9359V9.56205H66.2573V11.8487H59.0825V0.134766H66.2573V2.42142H61.9359Z" fill="white"/>
<path d="M75.3211 2.88037V4.8234H79.1424V7.0255H75.3211V9.59461H79.6426V11.8813H72.4678V2.88037" fill="#B2F35E"/>
<path d="M83.462 11.5808C82.7838 11.302 82.2404 10.8918 81.8356 10.3466C81.429 9.8015 81.2149 9.14483 81.1934 8.37841H84.2302C84.2752 8.81199 84.4245 9.14303 84.68 9.37152C84.9355 9.6 85.2701 9.71335 85.6803 9.71335C86.1031 9.71335 86.4359 9.6162 86.6806 9.4219C86.9253 9.22759 87.0476 8.95773 87.0476 8.6123C87.0476 8.32265 86.9505 8.08336 86.7562 7.89446C86.5619 7.70555 86.3226 7.54903 86.0383 7.42669C85.7541 7.30435 85.3511 7.16582 84.8293 7.0093C84.0737 6.77541 83.4548 6.54153 82.9781 6.30765C82.4995 6.07376 82.0875 5.73014 81.7439 5.27316C81.3985 4.81799 81.2257 4.22249 81.2257 3.48846C81.2257 2.3982 81.6197 1.54363 82.4096 0.926536C83.1994 0.309444 84.2284 0 85.4968 0C86.7868 0 87.8266 0.309444 88.6164 0.926536C89.4062 1.54363 89.829 2.4036 89.8848 3.50465H86.7975C86.7742 3.12684 86.6356 2.82819 86.3802 2.6123C86.1247 2.39641 85.7955 2.28666 85.3961 2.28666C85.0506 2.28666 84.7736 2.37842 84.5613 2.56192C84.3508 2.74543 84.2446 3.00989 84.2446 3.35532C84.2446 3.73313 84.4227 4.02819 84.779 4.24048C85.1352 4.45278 85.6911 4.67946 86.4485 4.92414C87.2041 5.17961 87.8194 5.42429 88.2926 5.65817C88.7658 5.89206 89.1742 6.23029 89.5196 6.67647C89.865 7.12084 90.0377 7.69476 90.0377 8.39461C90.0377 9.06207 89.8686 9.66837 89.5286 10.2135C89.1885 10.7586 88.6974 11.1922 88.0515 11.5143C87.4056 11.8363 86.6446 11.9982 85.7649 11.9982C84.9085 11.9982 84.1403 11.8597 83.462 11.5808Z" fill="#B2F35E"/>
<path d="M92.0886 2.91274C92.5888 2.00599 93.2868 1.30075 94.1828 0.793401C95.0787 0.287853 96.0934 0.0341797 97.2286 0.0341797C98.6193 0.0341797 99.8085 0.401195 100.8 1.13523C101.789 1.86926 102.451 2.86956 102.786 4.13793H99.6484C99.4145 3.64857 99.0835 3.27616 98.6553 3.02069C98.2271 2.76522 97.7396 2.63748 97.1945 2.63748C96.3165 2.63748 95.6041 2.94333 95.0589 3.55502C94.5138 4.16672 94.2421 4.98531 94.2421 6.0072C94.2421 7.03089 94.5138 7.84767 95.0589 8.45937C95.6041 9.07106 96.3165 9.37691 97.1945 9.37691C97.7396 9.37691 98.2253 9.24918 98.6553 8.99371C99.0835 8.73823 99.4145 8.36582 99.6484 7.87646H102.786C102.453 9.14483 101.791 10.1433 100.8 10.872C99.8103 11.6006 98.6193 11.964 97.2286 11.964C96.0934 11.964 95.0787 11.7103 94.1828 11.2048C93.2868 10.6992 92.5888 9.9958 92.0886 9.09445C91.5885 8.19311 91.3384 7.16402 91.3384 6.0072C91.3384 4.85217 91.5885 3.81949 92.0886 2.91274Z" fill="#B2F35E"/>
<path d="M110.544 11.8814L108.108 7.45924H107.424V11.8814H104.571V0.16748H109.36C110.283 0.16748 111.071 0.3294 111.72 0.651439C112.372 0.973478 112.857 1.41606 113.181 1.97738C113.503 2.5387 113.665 3.16479 113.665 3.85384C113.665 4.63285 113.446 5.3273 113.005 5.939C112.566 6.55069 111.918 6.98428 111.062 7.23975L113.764 11.8778H110.544V11.8814ZM107.422 5.44065H109.191C109.714 5.44065 110.107 5.31291 110.367 5.05744C110.628 4.80197 110.76 4.44035 110.76 3.97258C110.76 3.52821 110.628 3.17738 110.367 2.92191C110.107 2.66644 109.714 2.5387 109.191 2.5387H107.422V5.44065Z" fill="#B2F35E"/>
<path d="M117.992 11.2319C117.075 10.721 116.346 10.0049 115.806 9.08741C115.266 8.16987 114.997 7.13719 114.997 5.99296C114.997 4.84693 115.266 3.81784 115.806 2.9057C116.346 1.99355 117.075 1.28111 117.992 0.770167C118.91 0.259223 119.919 0.00195312 121.02 0.00195312C122.121 0.00195312 123.13 0.257423 124.048 0.770167C124.965 1.28291 125.689 1.99355 126.218 2.9057C126.747 3.81784 127.011 4.84693 127.011 5.99296C127.011 7.13898 126.745 8.16987 126.21 9.08741C125.676 10.0049 124.953 10.7192 124.041 11.2319C123.129 11.7429 122.121 12.0002 121.02 12.0002C119.921 11.9984 118.911 11.7429 117.992 11.2319ZM123.265 8.46132C123.827 7.83883 124.107 7.01485 124.107 5.99116C124.107 4.95668 123.827 4.13089 123.265 3.5138C122.704 2.8967 121.956 2.58726 121.022 2.58726C120.075 2.58726 119.322 2.89311 118.76 3.5048C118.199 4.1165 117.918 4.94588 117.918 5.99116C117.918 7.02564 118.199 7.85142 118.76 8.46852C119.322 9.08561 120.075 9.39506 121.022 9.39506C121.956 9.39506 122.704 9.08381 123.265 8.46132Z" fill="#B2F35E"/>
<path d="M144.748 0.168945L141.695 11.8829H138.241L136.372 4.17375L134.436 11.8829H130.982L128.011 0.168945H131.064L132.75 8.69488L134.835 0.168945H137.973L139.975 8.69488L141.677 0.168945H144.748Z" fill="#B2F35E"/>
<path d="M79.6426 0.168945H72.4678V2.4556H79.6426V0.168945Z" fill="#B2F35E"/>
</svg>
